<?xml version="1.0" encoding="utf-8"?>
<!-- Generator: Adobe Illustrator 15.1.0, SVG Export Plug-In . SVG Version: 6.00 Build 0)  -->
<!DOCTYPE svg PUBLIC "-//W3C//DTD SVG 1.0//EN" "http://www.w3.org/TR/2001/REC-SVG-20010904/DTD/svg10.dtd">
<svg version="1.0" id="Layer_1" xmlns="http://www.w3.org/2000/svg" xmlns:xlink="http://www.w3.org/1999/xlink" x="0px" y="0px"
	 width="450px" height="147.765px" viewBox="0 0 450 147.765" enable-background="new 0 0 450 147.765" xml:space="preserve">
<g>
	<path fill="#003015" d="M90.137,147.765H0V22.89l0.744-1.117C9.649,8.338,26.638,0,45.076,0c9.149,0,18.114,2.048,25.922,5.928
		c7.699,3.825,14.053,9.294,18.396,15.82l0.743,1.122V147.765z"/>
	<path fill="#FECB00" d="M85.652,24.227C77.85,12.467,62.599,4.485,45.069,4.485c-17.533,0-32.788,7.984-40.586,19.756v119.049
		h81.17V24.227z"/>
	<path fill="#003015" d="M35.467,68.203l3.429-0.41c0.104-0.009,0.19-0.109,0.19-0.237V52.512c0-1.322-0.505-2.419-1.399-2.646
		c-0.136-0.047-0.27-0.064-0.412-0.064c-1.126,0-2.046,1.206-2.046,2.698v15.502c0,0.1,0.073,0.173,0.155,0.182
		C35.408,68.196,35.435,68.203,35.467,68.203 M74.369,117.666c0,0-0.066-0.211-0.066-0.261c0-0.047-0.064-0.161-0.064-0.211
		c0-0.038-0.079-0.275-0.117-0.338c-0.049-0.063-0.086-0.223-0.127-0.282c-0.037-0.049-0.156-0.244-0.209-0.3
		c-0.061-0.071-0.229-0.153-0.294-0.145c-0.071,0-0.196-0.019-0.287-0.042c-0.079-0.018-0.82,0.077-0.882,0.077
		c-0.057,0.005-0.137-0.091-0.18-0.13c-0.051-0.06-0.146-0.123-0.146-0.123s-0.233-0.066-0.341-0.066s-0.207,0.035-0.392,0.066
		c-0.19,0.027-0.435-0.064-0.435-0.064s-0.1-0.097-0.158-0.113c-0.063-0.016-0.213-0.037-0.271-0.022c-0.067,0.009-0.182,0-0.182,0
		l-0.082-0.078c0,0-0.043-0.15-0.1-0.19c-0.061-0.051-0.15-0.275-0.15-0.275s-0.022-0.232-0.059-0.305
		c-0.021-0.067-0.092-0.349-0.115-0.411c-0.016-0.06-0.041-0.25-0.047-0.342c0-0.101-0.074-0.413-0.084-0.513
		c-0.027-0.1-0.117-0.342-0.162-0.377c-0.053-0.042-0.215-0.2-0.215-0.2l-0.068-0.19c0,0-0.111-0.228-0.216-0.278
		c-0.087-0.041-0.411-0.401-0.411-0.401s-0.046-0.241-0.058-0.276c-0.024-0.046-0.089-0.35-0.126-0.428
		c-0.035-0.073-0.1-0.278-0.137-0.331c-0.033-0.051-0.078-0.198-0.142-0.291c-0.058-0.082-0.122-0.272-0.179-0.347
		c-0.056-0.071-0.161-0.343-0.199-0.406c-0.033-0.071-0.243-0.535-0.279-0.582c-0.028-0.053-0.137-0.445-0.178-0.494
		c-0.038-0.051-0.201-0.416-0.226-0.479c-0.041-0.058-0.257-0.656-0.286-0.81c-0.03-0.149-0.234-0.492-0.275-0.578
		c-0.036-0.091-0.353-0.682-0.654-0.988c-0.309-0.325-0.369-0.472-0.369-0.472c0-0.073-0.056-0.184-0.103-0.268
		c-0.054-0.072-0.12-0.214-0.211-0.309c-0.091-0.108-0.169-0.302-0.228-0.391c-0.059-0.096-0.197-0.34-0.307-0.469
		c-0.107-0.135-0.307-0.444-0.397-0.546c-0.081-0.084-0.151-0.355-0.223-0.461c-0.069-0.112-0.147-0.305-0.188-0.436
		c-0.04-0.125-0.192-0.461-0.271-0.594c-0.059-0.135-0.17-0.31-0.209-0.366c-0.031-0.053-0.166-0.234-0.348-0.436
		c-0.196-0.225-0.287-0.397-0.396-0.544c-0.106-0.14-0.217-0.233-0.217-0.233s-0.079-0.216-0.108-0.281
		c-0.032-0.063-0.161-0.381-0.254-0.581c-0.111-0.196-0.26-0.504-0.329-0.613c-0.071-0.095-0.173-0.209-0.24-0.261
		c-0.069-0.053-0.212-0.326-0.212-0.326s-0.175-0.268-0.182-0.305c-0.029-0.037-0.295-0.384-0.38-0.496
		c-0.082-0.107-0.396-0.597-0.454-0.683c-0.053-0.085-0.185-0.235-0.274-0.272c-0.101-0.026-0.297-0.226-0.356-0.252
		c-0.057-0.021-0.185-0.193-0.196-0.255c-0.025-0.065-0.075-0.29-0.132-0.348c-0.054-0.069-0.1-0.265-0.129-0.323
		c-0.029-0.056-0.136-0.196-0.192-0.284c-0.045-0.082-0.108-0.27-0.158-0.404c-0.056-0.122-0.204-0.418-0.267-0.563
		c-0.075-0.162-0.177-0.277-0.287-0.446c-0.12-0.165-0.278-0.513-0.29-0.586c-0.021-0.079-0.075-0.249-0.111-0.313
		c-0.037-0.066-0.255-0.237-0.36-0.301c-0.101-0.068-0.198-0.186-0.236-0.259c-0.023-0.079,0-0.169,0.025-0.256
		c0.016-0.086,0-0.313-0.025-0.409c-0.023-0.096-0.201-0.361-0.231-0.413c-0.025-0.065-0.192-0.27-0.237-0.292
		c-0.054-0.037-0.12-0.122-0.164-0.153c-0.04-0.033-0.116-0.098-0.152-0.151c-0.025-0.046-0.237-0.204-0.27-0.239
		c-0.037-0.035-0.267-0.22-0.341-0.254c-0.078-0.04-0.209-0.098-0.277-0.098c-0.064,0-0.196,0.058-0.196,0.058
		s-0.079-0.079-0.16-0.135c-0.066-0.045-0.259-0.156-0.327-0.156c-0.064-0.014-0.259-0.121-0.334-0.142
		c-0.066-0.031-0.391-0.08-0.391-0.08l-0.278-0.089c0,0-0.284-0.129-0.319-0.153c-0.051-0.027-0.341-0.076-0.341-0.076
		s-0.201-0.073-0.242-0.091c-0.041-0.014-0.195-0.031-0.261-0.038c-0.066-0.013-0.42-0.091-0.48-0.091
		c-0.045,0-0.164-0.095-0.164-0.095c-0.086-0.091-0.413-0.276-0.47-0.333c-0.059-0.054-0.346-0.358-0.425-0.445
		c-0.069-0.064-0.56-0.458-0.65-0.524c-0.1-0.071-0.592-0.44-0.646-0.484c-0.059-0.027-0.236-0.414-0.275-0.542
		c-0.041-0.138-0.325-0.578-0.498-0.78c-0.173-0.212-0.536-0.407-0.536-0.407l-0.086-0.04l-0.034-0.118l0.001-0.437
		c0.114-0.163,0.218-0.57,0.255-0.778c0.029-0.209,0.045-0.446,0.045-0.549c0-0.107,0.019-0.172,0.045-0.216
		c0.045-0.038,0.105-0.004,0.105-0.004s0.041,0.032,0.19,0.074c0.149,0.051,0.231-0.025,0.316-0.134
		c0.07-0.091,0.047-0.189,0.047-0.317c0.015-0.117,0.082-0.292,0.119-0.35c0.05-0.089,0.268-0.229,0.296-0.289
		c0.029-0.059,0.168-0.088,0.227-0.138c0.054-0.044,0.164-0.097,0.164-0.097s0.05-0.092,0.111-0.145
		c0.053-0.049,0.088-0.082,0.088-0.166c0-0.081,0-0.208,0.045-0.249c0.047-0.054,0.066-0.158,0.072-0.258
		c0.006-0.087,0.056-0.191,0.086-0.285c0.025-0.1,0.079-0.192,0.113-0.284c0.016-0.091,0.025-0.244,0.012-0.281
		c-0.012-0.032-0.021-0.183-0.021-0.242c0-0.052-0.057-0.173-0.079-0.208c-0.025-0.038-0.037-0.196-0.025-0.26
		c0.013-0.068-0.048-0.151-0.066-0.191c-0.021-0.033-0.026-0.124-0.056-0.235c-0.026-0.109-0.05-0.072-0.082-0.116
		c-0.045-0.049-0.072-0.235-0.104-0.326c-0.041-0.101-0.075-0.251-0.104-0.34c-0.032-0.082-0.192-0.263-0.267-0.324
		c-0.082-0.056-0.12-0.069-0.12-0.069s0-0.406-0.004-0.513c0-0.127-0.041-0.309-0.056-0.365c-0.022-0.059-0.076-0.206-0.177-0.287
		c-0.1-0.077-0.363-0.291-0.441-0.335c-0.091-0.053-0.261-0.198-0.322-0.266c-0.054-0.061-0.223-0.244-0.287-0.289
		c-0.067-0.051-0.179-0.169-0.227-0.223c-0.037-0.042-0.144-0.1-0.182-0.146c-0.045-0.036-0.259-0.149-0.308-0.203
		c-0.066-0.042-0.193-0.128-0.248-0.161c-0.048-0.014-0.334-0.14-0.391-0.154c-0.038-0.004-0.272-0.06-0.334-0.079
		c-0.075-0.016-0.407-0.132-0.521-0.144c-0.1-0.004-0.409-0.017-0.582-0.004c-0.173,0.016-0.223,0.072-0.318,0.085
		c-0.091,0.022-0.319,0.164-0.319,0.164s-0.126,0.046-0.236,0.074c-0.103,0.026-0.374,0.209-0.413,0.272
		C44.389,75.7,44.212,75.9,44.212,75.9l-0.177,0.033C43.9,75.947,43.67,76.08,43.67,76.08c-0.182-0.015-0.341,0.111-0.376,0.111
		c-0.041,0.005-0.242,0.107-0.242,0.107s-0.091,0.018-0.333,0.161c-0.236,0.14-0.614,0.61-0.655,0.677
		c-0.035,0.082-0.24,0.516-0.24,0.576c0,0.06-0.054,0.215-0.054,0.215s-0.044,0.103-0.06,0.176
		c-0.034,0.059-0.095,0.221-0.144,0.297c-0.051,0.082-0.051,0.195-0.111,0.218c-0.054,0.03-0.145,0.135-0.199,0.173
		c-0.05,0.038-0.16,0.176-0.218,0.271c-0.069,0.093-0.123,0.202-0.173,0.282c-0.041,0.071-0.06,0.315-0.06,0.315
		s-0.031,0.11-0.076,0.166c-0.04,0.054-0.056,0.178-0.06,0.26c-0.004,0.084-0.018,0.436-0.018,0.436s-0.009,0.182-0.023,0.222
		c0,0,0,0.322-0.022,0.424c-0.012,0.083,0.041,0.509,0.094,0.579c0.042,0.072,0.224,0.217,0.261,0.261
		c0.045,0.033,0.246,0.18,0.321,0.22c0.062,0.04,0.125,0.117,0.18,0.117c0.035,0,0.072,0,0.091,0.034
		c0.035,0.047,0.067,0.028,0.125,0.024c0.042,0,0.082,0.074,0.129,0.091c0.048,0.018,0.048,0.064,0.069,0.116
		c0.013,0.059,0.054,0.203,0.073,0.253c0.006,0.059,0.095,0.299,0.117,0.366c0.023,0.058,0.048,0.292,0.101,0.401
		c0.079,0.119,0.199,0.165,0.28,0.156c0.07-0.012,0.154-0.086,0.154-0.086l-0.006,0.247c0,0,0.009,0.349,0.018,0.462
		c0.009,0.11,0.141,0.545,0.141,0.545s0.04,0.114,0.04,0.163c0,0.061,0.021,0.196,0.021,0.196s-0.123,0.042-0.201,0.086
		c-0.086,0.049-0.318,0.165-0.387,0.24c-0.07,0.071-0.255,0.435-0.286,0.521c-0.032,0.089-0.229,0.445-0.296,0.546
		c-0.066,0.104-0.237,0.387-0.324,0.488c-0.095,0.107-0.368,0.345-0.495,0.471c-0.125,0.144-0.551,0.5-0.653,0.603
		c-0.101,0.102-0.19,0.233-0.19,0.233s-0.042,0.031-0.083,0.056c-0.056,0.031-0.218,0.113-0.382,0.186
		c-0.16,0.076-0.296,0.163-0.456,0.209c-0.163,0.067-0.368,0.151-0.401,0.158c-0.037,0.028-0.182,0.031-0.233,0.047
		c-0.063,0.013-0.116,0.025-0.116,0.025s-0.113,0.052-0.168,0.052c-0.057,0-0.154,0.049-0.198,0.049
		c-0.05,0-0.179,0.042-0.249,0.046c-0.081,0-0.196,0.049-0.253,0.049c-0.054,0-0.195,0.074-0.268,0.074
		c-0.078,0.01-0.141,0.045-0.186,0.073s-0.171,0.063-0.242,0.082c-0.059,0.025-0.236,0.06-0.286,0.1
		c-0.045,0.036-0.119,0.096-0.196,0.116c-0.082,0.021-0.166,0.118-0.204,0.142c-0.041,0.019-0.101,0.049-0.164,0.047
		c-0.06-0.016-0.177,0.002-0.274,0.002c-0.091,0.006-0.397,0.165-0.517,0.229c-0.114,0.053-0.311,0.283-0.366,0.356
		c-0.035,0.086-0.239,0.382-0.316,0.507c-0.07,0.124-0.145,0.284-0.242,0.408c-0.091,0.125-0.163,0.32-0.195,0.374
		c-0.021,0.062-0.145,0.401-0.136,0.379c-0.028,0.069-0.164,0.411-0.164,0.411s-0.155,0.145-0.195,0.2
		c-0.037,0.058-0.192,0.494-0.201,0.558c-0.013,0.064-0.114,0.268-0.157,0.354c-0.048,0.088-0.243,0.492-0.243,0.492
		s-0.019,0.135-0.053,0.22c-0.034,0.088-0.1,0.343-0.157,0.457c-0.054,0.121-0.086,0.738-0.086,0.738s-0.044,0.098-0.091,0.217
		c-0.045,0.105-0.1,0.434-0.1,0.434s-0.06,0.077-0.11,0.14c-0.054,0.07-0.149,0.235-0.195,0.308c-0.051,0.074-0.13,0.17-0.209,0.305
		c-0.082,0.135-0.132,0.18-0.182,0.282c-0.04,0.087-0.173,0.282-0.205,0.368c-0.037,0.077-0.164,0.276-0.212,0.379
		c-0.06,0.096-0.095,0.254-0.152,0.366c-0.051,0.114-0.223,0.4-0.264,0.492c-0.054,0.1-0.063,0.264-0.111,0.351
		c-0.051,0.086-0.195,0.491-0.207,0.57c-0.018,0.074-0.218,0.502-0.243,0.609c-0.029,0.096-0.139,0.371-0.157,0.476
		c-0.029,0.104-0.19,0.402-0.234,0.478c-0.048,0.072-0.139,0.258-0.19,0.311c-0.044,0.076-0.249,0.275-0.303,0.375
		c-0.05,0.091-0.24,0.363-0.264,0.406c-0.012,0.036-0.127,0.218-0.158,0.293c-0.023,0.074-0.185,0.335-0.239,0.405
		c-0.057,0.077-0.171,0.377-0.237,0.504c-0.075,0.136-0.22,0.533-0.22,0.578c0,0.046-0.155,0.333-0.205,0.386
		c-0.045,0.054-0.157,0.42-0.196,0.492c-0.031,0.082-0.186,0.49-0.202,0.562c-0.025,0.079-0.252,0.661-0.275,0.751
		c-0.029,0.079-0.249,0.686-0.294,0.806c-0.045,0.115-0.27,0.678-0.337,0.834c-0.07,0.144-0.357,0.724-0.482,0.89
		c-0.123,0.16-0.445,1.063-0.445,1.063l-0.057,0.204c0,0-0.151,0.182-0.212,0.24c-0.047,0.053-0.229,0.389-0.286,0.449
		c-0.037,0.07-0.173,0.347-0.234,0.424c-0.066,0.078-0.11,0.187-0.11,0.187s-0.025,0.004-0.083,0.083
		c-0.054,0.084-0.091,0.117-0.114,0.182c-0.029,0.053-0.076,0.18-0.076,0.18s-0.069,0.127-0.151,0.305
		c-0.013,0.042-0.032,0.114-0.053,0.151c-0.015,0.039-0.06,0.15-0.083,0.191c-0.078,0.173-0.127,0.251-0.136,0.295
		c-0.045,0.131-0.111,0.191-0.111,0.191s-0.116-0.08-0.176-0.038c-0.054,0.047-0.1-0.018-0.1-0.018l-0.079-0.004
		c0,0-0.116,0.004-0.177,0c-0.066-0.017-0.221,0.004-0.275,0.021c-0.06,0.017-0.16,0.119-0.16,0.119s-0.24,0.093-0.423,0.063
		c-0.19-0.033-0.299-0.069-0.404-0.079c-0.107,0-0.337,0.063-0.337,0.063s-0.101,0.085-0.141,0.125
		c-0.057,0.053-0.132,0.148-0.186,0.144c-0.059,0-0.378-0.034-0.453-0.013c-0.089,0.018-0.255,0.095-0.325,0.095
		c-0.059,0-0.696,0.086-0.754,0.149c-0.06,0.074-0.168,0.256-0.214,0.307c-0.025,0.059-0.025,0.103-0.037,0.117
		c-0.164,0.034-3.989,0.347-4.043,0.347c-0.05,0-0.111,0.118-0.111,0.118v0.24c0,0.064,0.029,3.805,0.029,3.805l-6.844,0.109v19.929
		h72.224v-20.933c-4.535-0.048-6.708-0.1-6.714-0.113C74.459,117.726,74.369,117.666,74.369,117.666 M37.261,108.521
		c0,0.185,0.062,0.348,0.062,0.348s-0.016,0.109-0.047,0.205c-0.045,0.1-0.1,0.342-0.111,0.433c-0.025,0.098,0,0.154,0.021,0.253
		c0.012,0.096-0.041,0.315-0.116,0.337c-0.075,0.017-0.445,0.167-0.539,0.214c-0.097,0.042-0.313,0.264-0.434,0.422
		c-0.107,0.146-0.255,0.454-0.292,0.527c-0.042,0.079-0.166,0.246-0.224,0.388c-0.06,0.125-0.265,0.432-0.333,0.541
		c-0.075,0.109-0.227,0.419-0.271,0.538c-0.062,0.111-0.429,0.76-0.486,0.887c-0.053,0.131-0.391,0.536-0.516,0.704
		c-0.136,0.174-0.905,1.173-0.905,1.173l-3.627-1.267c-0.004-0.019,0.038-0.064,0.211-0.224c0.176-0.151,0.426-0.469,0.546-0.621
		c0.111-0.161,0.069-0.361,0.069-0.361c0.186-0.133,0.504-0.556,0.541-0.633c0.032-0.072,0.069-0.196,0.094-0.268
		c0.016-0.072,0.22-0.486,0.22-0.486s0.272-0.424,0.346-0.568c0.086-0.151,0.523-0.746,0.598-0.916
		c0.07-0.167,0.517-0.813,0.645-1.017c0.133-0.216,0.898-1.394,0.94-1.509c0.062-0.107,0.296-0.755,0.374-0.893
		c0.075-0.126,0.255-0.604,0.482-0.923c0.214-0.321,0.454-0.992,0.491-1.154c0.037-0.173,0.171-0.42,0.237-0.602
		c0.072-0.2,0.458-1.299,0.458-1.427c0-0.131,0.078-0.151,0.152-0.247c0.075-0.091,0.325-0.597,0.398-0.799
		c0.079-0.202,0.168-0.223,0.168-0.223s0.021,0.118,0.021,0.209c0.004,0.091,0.006,0.431-0.01,0.601
		c-0.015,0.173-0.01,0.528,0.01,0.675c0.025,0.161,0.116,0.682,0.174,1.106c0.064,0.442,0.398,1.404,0.456,1.574
		c0.059,0.167,0.022,0.5,0.022,0.621c0,0.105-0.032,0.576,0.009,0.771c0.037,0.191,0.151,0.474,0.192,0.577
		c0.041,0.117,0.041,0.212,0.041,0.212s0.004,0.131-0.031,0.243C37.261,108.066,37.261,108.352,37.261,108.521 M64.463,116.488
		c-0.165,0.058-0.147,0.167-0.147,0.167s-0.294,0.033-0.45,0.033c-0.148,0-0.312,0.054-0.312,0.054h-0.325
		c-0.108,0-0.268,0.104-0.268,0.104l-0.409,0.007l-0.416-0.017c0,0-0.316-0.221-0.439-0.3c-0.112-0.07-0.445-0.259-0.604-0.354
		c-0.15-0.085-0.503-0.272-0.66-0.345c-0.154-0.076-0.417-0.148-0.549-0.191c-0.123-0.032-0.396-0.14-0.51-0.1
		c-0.105,0.032-0.354-0.032-0.482-0.032c-0.132,0-0.735,0.132-0.855,0.132c-0.111,0.006-0.432-0.027-0.631-0.1
		c-0.208-0.074-0.835-0.258-1.005-0.28c-0.164-0.007-0.28,0.066-0.28,0.066s-0.126-0.378-0.126-0.606
		c0-0.223-0.091-0.504-0.157-0.663c-0.057-0.14-0.224-0.333-0.265-0.482c-0.04-0.15-0.221-0.472-0.274-0.657
		c-0.041-0.184-0.231-0.484-0.264-0.675c-0.045-0.189-0.362-0.826-0.428-0.957c-0.063-0.132-0.42-0.672-0.545-0.768
		c-0.136-0.096-0.633-0.431-0.633-0.431l-0.025-0.167c0,0-0.01-0.357-0.016-0.493c0-0.132-0.063-0.221-0.1-0.36
		c-0.05-0.131-0.1-0.408-0.174-0.449c-0.081-0.033-0.057-0.094-0.057-0.094l0.104-0.244c0,0,0.132-0.211,0.168-0.302
		c0.05-0.097,0.064-0.284,0.091-0.409c0.044-0.146,0.075-0.253,0.075-0.371c-0.006-0.104,0.053-0.299,0.053-0.396
		c0-0.095,0.1-0.605,0.119-0.715c0.018-0.111,0.1-0.281,0.168-0.418c0.076-0.135,0.091-0.222,0.091-0.364
		c0-0.127-0.023-0.287,0.009-0.472c0.037-0.191,0.111-0.434,0.111-0.56c0-0.135,0.132-0.442,0.161-0.538
		c0.037-0.091,0.091-0.396,0.091-0.506c0-0.118,0.097-0.451,0.105-0.547c0.022-0.1,0.091-0.528,0.091-0.733
		c0-0.213,0.166-0.566,0.182-0.729c0.013-0.149,0.149-0.544,0.149-0.615c0-0.076,0.06-0.251,0.078-0.325
		c0.023-0.068,0.048-0.247,0.048-0.247l0.215,0.021c0,0,0.209,0.245,0.275,0.408c0.053,0.167,0.28,0.527,0.338,0.696
		c0.057,0.171,0.888,1.524,0.98,1.78c0.094,0.266,1.02,1.975,1.118,2.156c0.097,0.187,0.558,1.136,0.686,1.271
		c0.132,0.16,0.787,1.283,0.924,1.509c0.136,0.221,0.932,1.381,1.009,1.46c0.072,0.072,0.614,0.954,0.708,1.046
		c0.096,0.095,0.709,0.941,0.709,0.941s0.321,0.371,0.333,0.583c0.026,0.204,0.37,0.557,0.655,1.004
		c0.297,0.449,0.651,0.789,0.651,0.789s0.111,0.038,0.229,0.202c0.116,0.17,0.253,0.455,0.387,0.568
		c0.108,0.107,0.108,0.164,0.108,0.164s0,0.064-0.074,0.153c-0.066,0.086,0.124,0.261,0.124,0.261l0.116,0.269
		c0,0,0.072,0.32,0.146,0.436c0.082,0.102,0.182,0.549,0.182,0.549S64.635,116.429,64.463,116.488 M45.076,8.957
		c-14.966,0-28.66,6.363-36.122,16.683v83.609l4.27-0.391l0.045-3.136c-0.045-0.074-0.041-0.161,0.004-0.237l0.025-1.397
		l1.102-0.091c-0.163-0.187-0.299-0.399-0.312-0.593c-0.032-0.212,0.16-0.44,0.173-0.673c0.013-0.249,0.023-0.498,0.023-0.75
		c0.009-0.363-0.155-0.647-0.146-1.054c0-0.142-0.331-0.703-0.149-0.777c0.091-0.035,0.168-0.076,0.231-0.115
		c-0.028-0.103-0.041-0.191,0.009-0.207c0.387-0.152,0.41-0.31,0.715-0.547c0.067-0.042,0.108-0.086,0.142-0.119
		c-0.015-0.078-0.092-0.171-0.12-0.362c0.016-0.022,0.054-0.049,0.086-0.084v-0.012c0-0.031,0.041-0.046,0.089-0.082
		c0.025-0.076,0-0.191,0.092-0.271c0,0,0.019-0.016,0.078-0.042c0.05-0.035,0.166-0.077,0.316-0.053
		c0.088,0.004,0.17,0.022,0.265,0.086c0.101,0.072,0.078,0.196,0.092,0.263c0.009,0.018,0.018,0.038,0.029,0.053
		c0.006,0.007,0.01,0.016,0.025,0.016c0.045,0.042,0.116,0.078,0.127,0.113c-0.037,0.205-0.127,0.305-0.127,0.387
		c0.026,0.032,0.059,0.064,0.107,0.095c0.306,0.226,0.334,0.37,0.716,0.517c0.05,0.012,0.05,0.097,0.025,0.193
		c0.066,0.037,0.152,0.082,0.256,0.124c0.177,0.058-0.161,0.636-0.149,0.778c0,0.4-0.157,0.705-0.151,1.062
		c0.004,0.244,0.01,0.502,0.019,0.744c0.025,0.24,0.208,0.445,0.182,0.675c-0.013,0.142-0.091,0.292-0.196,0.442l3.839-0.309
		c0.054-0.891,0.091-0.924,0.091-0.969v-0.004l-0.015-0.988c-0.022-1.847-0.031-0.353-0.051-2.19
		c-0.016-1.374-0.025-4.566-0.048-5.93v-0.087c0-0.153-0.078-0.291-0.078-0.444c0-0.072,0.078-1.066,0.078-1.176
		c0-0.208-0.189-0.368-0.189-0.542c0-0.083,0.111-0.066,0.148-0.149c0.041-0.096,0.028-0.223,0.028-0.325
		c0-0.329-0.155-0.597-0.441-0.753c-0.185-0.097-0.151-0.262-0.151-0.454c0-0.175-0.125-0.306-0.125-0.463
		c0-0.172-0.435-0.11-0.548-0.205c-0.16-0.128-0.177-0.391-0.319-0.558c-0.127-0.159-0.202-0.578-0.259-0.786
		c-0.054-0.225-0.486-1.153-0.182-1.182c0.313-0.182,1.865-0.217,1.865-0.762c0-0.209-0.041-0.449,0.013-0.659
		c0.056-0.19,0.229-0.317,0.283-0.519c0.082-0.305,0.026-0.34,0.026-0.649c0-0.133,0.101-1.115-0.149-1.086
		c-0.363,0.049,0.032-0.426,0.032-0.528c0-0.318-0.233-0.428-0.28-0.709c-0.07-0.3-0.243-0.419,0.013-0.65
		c0.029-0.041,0.12-0.064,0.234-0.091V80.34c0.007-0.119,0.103-0.228,0.223-0.241l0.164-0.024c-0.205-0.217-0.4-0.491-0.428-0.73
		c-0.028-0.218,0.16-0.445,0.18-0.669c0.009-0.202,0.01-0.396,0.01-0.6c-0.026-0.082-0.026-0.178-0.018-0.249
		c0-0.052,0.007-0.08,0.012-0.115c-0.012-0.084-0.029-0.167-0.044-0.242c-0.022-0.032-0.041-0.049-0.076-0.089
		c-0.105-0.116-0.072-0.179,0.009-0.225c-0.009-0.091-0.019-0.187-0.019-0.287c0-0.14-0.331-0.702-0.149-0.773
		c0.088-0.04,0.16-0.079,0.227-0.122c-0.022-0.103-0.038-0.189,0.012-0.204c0.391-0.152,0.416-0.31,0.718-0.545
		c0.066-0.042,0.105-0.087,0.139-0.122c-0.018-0.078-0.091-0.171-0.119-0.362c0.01-0.024,0.05-0.049,0.085-0.082v-0.013
		c0-0.036,0.042-0.049,0.091-0.074v-0.008c0.016-0.076,0-0.185,0.091-0.272c0,0,0.021-0.02,0.079-0.04
		c0.045-0.037,0.16-0.075,0.316-0.056c0.079,0.005,0.17,0.028,0.267,0.086c0.095,0.082,0.072,0.196,0.091,0.263
		c0.004,0.026,0.018,0.042,0.029,0.051c0.004,0.009,0.012,0.014,0.025,0.014c0.045,0.049,0.119,0.082,0.129,0.117
		c-0.038,0.207-0.129,0.305-0.129,0.382c0.028,0.036,0.059,0.064,0.108,0.105c0.3,0.22,0.328,0.367,0.715,0.507
		c0.045,0.017,0.045,0.095,0.021,0.196c0.066,0.044,0.152,0.084,0.261,0.121c0.177,0.063-0.157,0.641-0.152,0.782
		c0,0.101-0.004,0.191-0.021,0.287c0.091,0.04,0.132,0.105,0.021,0.225c-0.042,0.049-0.075,0.08-0.092,0.106
		c-0.007,0.053-0.016,0.107-0.032,0.163c0.004,0.037,0.016,0.091,0.021,0.175c0.004,0.085,0.004,0.205-0.041,0.301
		c0,0.186,0.012,0.367,0.021,0.551c0.016,0.238,0.201,0.446,0.174,0.683c-0.01,0.121-0.079,0.253-0.158,0.384l7.588-1.833
		l0.059-0.013c0.05,0,0.086-0.041,0.086-0.082l0.013-0.214v-1.735c0-0.563-0.149-0.671,0.025-1.211
		c0.103-0.333,0.599-0.264,0.599-0.591v-0.577c0-0.24,0.223-0.358,0.223-0.594v-0.322c0-0.344,0.243-2.2-0.209-2.309
		c-0.151-0.31-0.628-1.041-0.182-1.197c0.249-0.082,0.294-0.265,0.463-0.446c0.25-0.103,0.341-0.345,0.341-0.594
		c0-0.827,0.004-1.65,0.004-2.47c0.023-3.752,0.032-2.282,0.05-6.029c0.01-1.191,0.01-2.382,0.019-3.571v-0.23
		c0-0.224-0.218-0.203-0.218-0.426c-0.11-0.191-0.078-0.267-0.287-0.44c-0.341-0.298-0.23-0.237-0.141-0.624
		c0.054-0.238-0.037-0.348-0.079-0.552c-0.031-0.164,0.186-0.333,0.186-0.526c0-0.224,0.016-0.445-0.066-0.662
		c-0.078-0.163,0-0.414-0.287-0.414c-0.076-0.04-0.17,0.014-0.245-0.031c-0.136-0.074-0.136-0.333-0.151-0.468
		c-0.029-0.256-0.045-0.27-0.195-0.47c-0.141-0.193,0.149-0.439,0.265-0.564c0.171-0.167,0.34-0.382,0.589-0.404
		c0.173-0.058,0.485,0.042,0.485-0.261c0.098-0.264-0.016-0.781-0.021-1.066c-0.004-0.4,0.218-0.614,0.302-0.98
		c0.067-0.27,0.057-0.591,0.057-0.883c0-0.806,0.05-1.499-0.289-2.206c-0.107-0.218-0.565-0.983-0.095-1.132
		c0.12-0.086,0.347-0.107,0.489-0.149c0.189-0.06,0.054-0.633,0.042-0.824c-0.062-1.646,0.193-3.427,0.989-4.895
		c0.765-1.424,2.133-2.744,3.473-3.637c0.552-0.369,1.134-0.689,1.717-0.991c0.149-0.078,0.294-0.16,0.45-0.233
		c0.166-0.082,0.082-0.244,0.177-0.319c0.17-0.158,0.366-0.276,0.45-0.503c0.111-0.291,0.188-0.3,0.415-0.446
		c0.205-0.072,0.409-0.289,0.409-0.521c0.009-0.092-0.23-0.28-0.281-0.371c-0.135-0.285,0.168-0.238,0.29-0.381
		c0.073-0.068,0.053-0.187,0.053-0.277c0-0.23,0.06-0.329,0.12-0.531c0.045-0.153,0.023-0.344,0.023-0.491v-4.179
		c0-0.305-0.486-0.317-0.486-0.595c0-0.182,0.236-0.148,0.331-0.208c0.214-0.052,0.164-0.202,0.242-0.352
		c0.073-0.146,0.166-0.172,0.149-0.373c-0.018-0.195,0-0.396,0.028-0.587c0.16-0.941,0.753-1.72,1.597-2.164
		c0.309-0.164,0.965-0.319,0.965-0.317c-0.042-0.224,0.157-0.947,0.217-1.162c0.067-0.274,0.141-0.538,0.218-0.808
		c0.092-0.303,0.272-0.896,0.687-0.856c0.404-0.04,0.586,0.554,0.677,0.856c0.073,0.27,0.151,0.533,0.223,0.808
		c0.057,0.215,0.268,0.938,0.214,1.162c0,0,0.655,0.153,0.973,0.317c0.833,0.444,1.428,1.223,1.592,2.164
		c0.028,0.191,0.041,0.392,0.028,0.587c-0.019,0.201,0.072,0.227,0.157,0.373c0.075,0.149,0.016,0.3,0.224,0.352
		c0.105,0.06,0.337,0.026,0.337,0.208c0,0.278-0.486,0.291-0.486,0.595v4.179c0,0.147-0.028,0.338,0.021,0.491
		c0.07,0.202,0.12,0.301,0.12,0.531c0,0.091-0.009,0.209,0.056,0.277c0.125,0.143,0.426,0.096,0.29,0.381
		c-0.045,0.091-0.286,0.279-0.286,0.371c0.004,0.232,0.211,0.449,0.417,0.521c0.227,0.146,0.3,0.156,0.419,0.446
		c0.067,0.227,0.272,0.345,0.448,0.503c0.086,0.075,0.006,0.238,0.174,0.319c0.151,0.073,0.303,0.156,0.445,0.233
		c0.583,0.302,1.173,0.622,1.72,0.991c1.348,0.893,2.703,2.212,3.48,3.637c0.782,1.467,1.04,3.248,0.976,4.895
		c-0.001,0.191-0.144,0.764,0.048,0.824c0.148,0.042,0.362,0.063,0.494,0.149c0.467,0.149,0.009,0.915-0.103,1.132
		c-0.34,0.707-0.289,1.4-0.289,2.206c0,0.292-0.015,0.613,0.059,0.883c0.086,0.366,0.305,0.58,0.305,0.98
		c-0.009,0.286-0.114,0.803-0.018,1.066c0,0.303,0.313,0.203,0.475,0.261c0.252,0.022,0.425,0.237,0.593,0.404
		c0.119,0.125,0.409,0.371,0.267,0.564c-0.157,0.201-0.167,0.214-0.196,0.47c-0.016,0.135-0.016,0.394-0.144,0.468
		c-0.083,0.045-0.179-0.009-0.259,0.031c-0.27,0-0.199,0.251-0.27,0.414c-0.089,0.217-0.07,0.438-0.07,0.662
		c0,0.193,0.214,0.362,0.182,0.526c-0.041,0.204-0.132,0.313-0.082,0.552c0.1,0.387,0.205,0.326-0.141,0.624
		c-0.205,0.173-0.185,0.249-0.292,0.44c0,0.223-0.214,0.202-0.214,0.426v0.23c0,1.189,0.019,2.38,0.019,3.571l0.045,6.029
		c0.013,0.82,0.013,1.643,0.013,2.47c0,0.249,0.082,0.491,0.338,0.594c0.176,0.182,0.212,0.364,0.461,0.446
		c0.451,0.156-0.037,0.887-0.186,1.197c-0.45,0.109-0.205,1.965-0.205,2.309v0.322c0,0.235,0.226,0.354,0.226,0.594v0.186
		c0,0.335,0.491,0.287,0.602,0.622c0.18,0.545,0.015,1.009,0.015,1.579v1.884c0,0.015,0,0.038,0.009,0.046
		c0.004,0.03,0.018,0.044,0.041,0.053l7.745,1.881c-0.082-0.132-0.146-0.267-0.163-0.379c-0.021-0.236,0.171-0.445,0.181-0.683
		c0.012-0.145,0.012-0.303,0.02-0.451c-0.124-0.1-0.13-0.275-0.119-0.392c0.02-0.241,0.074-0.264-0.11-0.447
		c-0.146-0.144-0.041-0.216,0.1-0.256c-0.009-0.088-0.015-0.169-0.015-0.26c0.006-0.142-0.33-0.72-0.15-0.782
		c0.102-0.037,0.195-0.077,0.258-0.121c-0.023-0.101-0.023-0.179,0.018-0.196c0.387-0.14,0.408-0.287,0.719-0.507
		c0.045-0.041,0.085-0.069,0.108-0.105c0-0.077-0.091-0.175-0.123-0.382c0.009-0.035,0.079-0.068,0.123-0.117
		c0.009,0,0.023-0.005,0.028-0.014c0.008-0.009,0.018-0.024,0.029-0.051c0.012-0.067-0.012-0.182,0.078-0.263
		c0.105-0.059,0.197-0.082,0.273-0.086c0.159-0.019,0.273,0.019,0.32,0.056c0.057,0.021,0.08,0.04,0.08,0.04
		c0.092,0.087,0.068,0.196,0.092,0.272v0.008c0.041,0.024,0.082,0.038,0.082,0.074v0.013c0.042,0.033,0.08,0.058,0.09,0.082
		c-0.031,0.191-0.105,0.284-0.123,0.362c0.033,0.035,0.075,0.08,0.141,0.122C69,75.46,69.037,75.618,69.42,75.77
		c0.051,0.015,0.034,0.102,0.004,0.204c0.071,0.042,0.142,0.082,0.235,0.122c0.182,0.072-0.152,0.633-0.152,0.773
		c0.005,0.128-0.012,0.246-0.034,0.351c0.018,0.033,0.005,0.071-0.019,0.111c-0.047,0.198-0.095,0.391-0.091,0.592
		c0,0.251,0.015,0.5,0.023,0.751c0.014,0.224,0.205,0.451,0.173,0.669c-0.023,0.23-0.2,0.493-0.404,0.704l0.335,0.051
		c0.116,0.013,0.207,0.122,0.223,0.241v0.39l0.016,0.003c0.248,0.239,0.074,0.352,0.008,0.659c-0.064,0.275-0.295,0.391-0.295,0.706
		c0,0.105,0.395,0.57,0.049,0.533c-0.264-0.029-0.158,0.947-0.158,1.078c0,0.302-0.068,0.347,0.018,0.646
		c0.063,0.198,0.232,0.32,0.287,0.529c0.061,0.209,0.022,0.442,0.022,0.653c0,0.54,1.547,0.584,1.856,0.756
		c0.314,0.028-0.128,0.957-0.182,1.192c-0.052,0.2-0.128,0.628-0.26,0.782c-0.143,0.165-0.16,0.426-0.319,0.561
		c-0.104,0.086-0.545,0.032-0.545,0.195c0,0.158-0.126,0.288-0.126,0.473c0,0.195,0.035,0.347-0.148,0.441
		c-0.285,0.164-0.434,0.436-0.434,0.76c0,0.104-0.012,0.227,0.021,0.322c0.031,0.078,0.148,0.066,0.148,0.151
		c0,0.169-0.194,0.333-0.194,0.545c0,0.109,0.082,1.099,0.082,1.182c0,0.146-0.087,0.286-0.087,0.438v0.08
		c-0.002,1.367-0.019,4.554-0.036,5.923c-0.021,1.844-0.036,0.349-0.059,2.19l-0.011,0.967v0.017c0,0.046,0.045,0.079,0.087,0.971
		l3.907,0.303c-0.033-0.064-0.055-0.133-0.059-0.196c-0.023-0.233,0.162-0.437,0.183-0.672c0.012-0.256,0.017-0.498,0.021-0.751
		c0.006-0.355-0.156-0.66-0.149-1.064c0.005-0.136-0.333-0.714-0.152-0.78c0.106-0.034,0.194-0.081,0.257-0.125
		c-0.022-0.091-0.027-0.17,0.024-0.188c0.382-0.145,0.411-0.291,0.712-0.507c0.05-0.043,0.086-0.066,0.109-0.106
		c0-0.081-0.09-0.178-0.123-0.381c0.01-0.037,0.08-0.068,0.123-0.119c0.017,0,0.022-0.009,0.022-0.019
		c0.015-0.007,0.029-0.023,0.035-0.044c0.011-0.068-0.006-0.189,0.087-0.268c0.1-0.059,0.188-0.076,0.265-0.082
		c0.159-0.027,0.269,0.021,0.321,0.054c0.059,0.022,0.07,0.041,0.07,0.041c0.101,0.091,0.077,0.195,0.101,0.275
		c0.046,0.023,0.085,0.042,0.085,0.082v0.011c0.035,0.031,0.078,0.061,0.082,0.082c-0.021,0.189-0.1,0.28-0.108,0.36
		c0.026,0.035,0.07,0.07,0.136,0.12c0.301,0.232,0.327,0.393,0.719,0.547c0.047,0.015,0.031,0.106,0.01,0.208
		c0.066,0.038,0.137,0.078,0.229,0.115c0.18,0.072-0.154,0.638-0.154,0.773c0.017,0.41-0.152,0.696-0.143,1.054
		c0,0.254,0.013,0.501,0.023,0.755c0.02,0.23,0.203,0.451,0.174,0.669c-0.012,0.113-0.07,0.247-0.145,0.369l0.922,0.073l0.021,1.617
		c0.054,0.086,0.074,0.191,0.004,0.282l0.041,2.884l4.075,0.364V25.625C73.715,15.311,60.023,8.957,45.076,8.957 M44.234,29.252
		c0.004,0,0.012,0.004,0.023,0.004h1.61c0.022,0,0.05-0.037,0.05-0.062v-4.822c0-0.408-0.3-0.871-0.709-0.959
		c-0.064-0.022-0.127-0.031-0.196-0.031c-0.469,0-0.855,0.521-0.855,0.975v4.821c0,0.034,0.026,0.074,0.056,0.074H44.234z
		 M42.932,23.904c-0.062-0.013-0.116-0.018-0.171-0.009c-0.34,0.064-0.64,0.338-0.7,0.808v4.896c0,0.042,0.028,0.064,0.06,0.055
		c0.013,0.009,0.034,0.024,0.045,0.009l1.301-0.257c0.031,0,0.054-0.034,0.054-0.074V24.71
		C43.521,24.322,43.225,23.947,42.932,23.904 M42.202,51.409v15.998c0,0.1,0.076,0.187,0.163,0.207
		c0.019,0.002,0.05,0.012,0.076,0.012h5.276c0.11,0,0.192-0.094,0.192-0.21V51.425c0-1.354-0.924-2.696-2.256-3.003
		c-0.193-0.043-0.41-0.072-0.618-0.072C43.397,48.349,42.202,49.875,42.202,51.409 M46.658,29.403c0.004,0,0.004,0.002,0.004,0.002
		l1.282,0.257C47.975,29.678,48,29.648,48,29.611v-4.9c-0.056-0.439-0.325-0.751-0.665-0.8c-0.009-0.007-0.009,0-0.018-0.007
		c-0.009,0-0.018-0.009-0.025-0.009c-0.375-0.063-0.729,0.365-0.729,0.808v4.62c0,0.034,0.022,0.064,0.062,0.064L46.658,29.403z
		 M51.23,67.776l0.021,0.008c0.004,0.004,0.021,0.004,0.031,0.009l3.431,0.41c0.1,0.014,0.186-0.079,0.186-0.196V52.512
		c0-1.322-0.712-2.419-1.66-2.646c-0.136-0.047-0.281-0.064-0.42-0.064c-1.126,0-1.775,1.206-1.775,2.698v15.047
		C51.042,67.669,51.135,67.77,51.23,67.776"/>
	<path fill="#FECB00" d="M37.327,107.702c0,0,0-0.095-0.041-0.21c-0.04-0.109-0.155-0.391-0.192-0.582
		c-0.038-0.196-0.009-0.663-0.009-0.77c0-0.122,0.037-0.452-0.021-0.627c-0.062-0.165-0.391-1.127-0.457-1.56
		c-0.05-0.432-0.149-0.956-0.185-1.115c-0.01-0.146-0.015-0.503-0.001-0.674c0.018-0.169,0.018-0.511,0.009-0.602
		c0-0.091-0.018-0.209-0.018-0.209s-0.091,0.021-0.164,0.229c-0.078,0.2-0.328,0.705-0.407,0.796
		c-0.07,0.095-0.145,0.115-0.145,0.244c0,0.129-0.387,1.229-0.46,1.42c-0.07,0.191-0.199,0.436-0.239,0.605
		c-0.037,0.168-0.275,0.838-0.491,1.156c-0.227,0.319-0.412,0.797-0.482,0.928c-0.075,0.134-0.313,0.782-0.371,0.891
		c-0.05,0.114-0.812,1.29-0.942,1.506c-0.127,0.205-0.576,0.851-0.647,1.021c-0.073,0.168-0.517,0.764-0.601,0.913
		c-0.069,0.146-0.341,0.568-0.341,0.568s-0.204,0.414-0.223,0.484c-0.022,0.076-0.057,0.196-0.091,0.272
		c-0.034,0.078-0.353,0.498-0.539,0.631c0,0,0.04,0.2-0.07,0.359c-0.116,0.156-0.374,0.472-0.546,0.629
		c-0.17,0.153-0.218,0.202-0.215,0.22l3.633,1.266c0,0,0.768-1,0.905-1.173c0.119-0.169,0.464-0.573,0.511-0.705
		c0.062-0.129,0.426-0.773,0.488-0.888c0.047-0.125,0.195-0.428,0.272-0.536c0.07-0.109,0.275-0.414,0.333-0.542
		c0.059-0.14,0.182-0.309,0.224-0.389c0.034-0.072,0.186-0.379,0.292-0.524c0.116-0.16,0.334-0.382,0.434-0.423
		c0.091-0.047,0.464-0.199,0.539-0.214c0.078-0.023,0.126-0.24,0.116-0.335c-0.021-0.101-0.045-0.158-0.021-0.251
		c0.015-0.096,0.066-0.336,0.105-0.436c0.034-0.095,0.053-0.205,0.053-0.205s-0.057-0.168-0.057-0.35
		c0-0.169-0.004-0.457,0.029-0.579C37.332,107.83,37.327,107.702,37.327,107.702 M64.443,115.323l-0.116-0.269
		c0,0-0.19-0.172-0.124-0.258c0.071-0.089,0.071-0.158,0.071-0.158s0-0.052-0.111-0.161c-0.122-0.114-0.265-0.398-0.384-0.568
		c-0.111-0.167-0.226-0.202-0.226-0.202s-0.356-0.341-0.651-0.786c-0.287-0.449-0.626-0.808-0.655-1.008
		c-0.013-0.21-0.329-0.583-0.329-0.583s-0.614-0.847-0.711-0.943c-0.096-0.091-0.639-0.973-0.71-1.044
		c-0.078-0.078-0.873-1.237-1.008-1.461c-0.139-0.225-0.791-1.345-0.926-1.509c-0.127-0.134-0.59-1.083-0.686-1.269
		c-0.101-0.187-1.017-1.893-1.118-2.156c-0.091-0.261-0.924-1.616-0.977-1.783c-0.062-0.163-0.287-0.526-0.343-0.696
		c-0.064-0.164-0.274-0.407-0.274-0.407l-0.218-0.02c0,0-0.021,0.177-0.042,0.244c-0.012,0.074-0.086,0.251-0.086,0.329
		c0,0.067-0.13,0.463-0.144,0.614c-0.018,0.161-0.186,0.513-0.186,0.727c0.004,0.206-0.062,0.633-0.086,0.733
		c-0.009,0.095-0.105,0.428-0.105,0.55c0,0.109-0.051,0.414-0.086,0.505c-0.035,0.095-0.166,0.398-0.166,0.536
		c0,0.128-0.075,0.365-0.108,0.557c-0.035,0.188-0.012,0.349-0.012,0.474c0,0.142-0.015,0.229-0.089,0.366
		c-0.067,0.133-0.152,0.307-0.168,0.416c-0.018,0.11-0.117,0.62-0.117,0.716c0,0.095-0.062,0.291-0.057,0.396
		c0,0.119-0.029,0.226-0.073,0.37c-0.026,0.128-0.038,0.313-0.091,0.418c-0.037,0.083-0.166,0.295-0.166,0.295l-0.116,0.242
		c0,0-0.015,0.063,0.063,0.091c0.079,0.045,0.127,0.325,0.177,0.454c0.032,0.138,0.1,0.226,0.1,0.358
		c0.006,0.138,0.015,0.498,0.015,0.498l0.026,0.163c0,0,0.497,0.337,0.634,0.433c0.122,0.096,0.483,0.634,0.546,0.769
		c0.062,0.125,0.379,0.764,0.423,0.954c0.034,0.191,0.224,0.493,0.268,0.675c0.047,0.185,0.23,0.514,0.271,0.658
		c0.042,0.151,0.215,0.344,0.264,0.482c0.07,0.16,0.161,0.442,0.161,0.663c0,0.229,0.119,0.605,0.119,0.605s0.12-0.077,0.284-0.063
		c0.17,0.021,0.795,0.205,1.005,0.276c0.199,0.072,0.52,0.107,0.634,0.101c0.113,0,0.721-0.135,0.854-0.135
		c0.126,0,0.378,0.069,0.482,0.034c0.114-0.04,0.387,0.068,0.51,0.101c0.13,0.041,0.394,0.116,0.551,0.19
		c0.152,0.073,0.508,0.257,0.657,0.345c0.159,0.095,0.487,0.284,0.607,0.356c0.123,0.076,0.434,0.301,0.434,0.301l0.419,0.013
		l0.411-0.004c0,0,0.157-0.105,0.266-0.105h0.325c0,0,0.163-0.056,0.312-0.056c0.157,0,0.453-0.031,0.453-0.031
		s-0.021-0.109,0.144-0.165c0.175-0.062,0.31-0.184,0.31-0.184s-0.1-0.444-0.182-0.547C64.52,115.643,64.443,115.323,64.443,115.323
		 M77.104,108.857l-0.041-2.883c0.074-0.091,0.053-0.198-0.004-0.282l-0.021-1.62L76.111,104c0.078-0.123,0.14-0.253,0.152-0.368
		c0.025-0.219-0.16-0.442-0.178-0.668c-0.008-0.258-0.021-0.5-0.021-0.757c-0.01-0.358,0.157-0.645,0.139-1.052
		c0-0.136,0.34-0.702,0.156-0.778c-0.091-0.033-0.166-0.075-0.229-0.114c0.025-0.098,0.038-0.193-0.01-0.205
		c-0.392-0.155-0.422-0.313-0.715-0.549c-0.072-0.046-0.115-0.083-0.14-0.119c0.012-0.081,0.091-0.172,0.111-0.36
		c-0.005-0.021-0.054-0.049-0.087-0.082v-0.012c0-0.038-0.037-0.056-0.082-0.082c-0.021-0.079,0-0.183-0.1-0.272
		c0,0-0.014-0.021-0.077-0.046c-0.041-0.028-0.157-0.08-0.313-0.051c-0.08,0.006-0.172,0.025-0.271,0.081
		c-0.09,0.086-0.077,0.201-0.086,0.268c-0.004,0.021-0.018,0.041-0.029,0.047c0,0.014-0.009,0.018-0.023,0.018
		c-0.05,0.049-0.115,0.082-0.125,0.109c0.034,0.21,0.125,0.308,0.125,0.389c-0.025,0.04-0.062,0.066-0.111,0.096
		c-0.301,0.226-0.331,0.375-0.713,0.517c-0.049,0.02-0.045,0.099-0.02,0.189c-0.067,0.047-0.154,0.091-0.264,0.128
		c-0.178,0.063,0.162,0.634,0.158,0.782c-0.01,0.4,0.152,0.705,0.146,1.06c-0.009,0.251-0.009,0.496-0.029,0.75
		c-0.012,0.237-0.197,0.442-0.174,0.673c0.004,0.064,0.029,0.132,0.061,0.195l-3.906-0.305c-0.049-0.891-0.086-0.922-0.086-0.971
		v-0.015l0.008-0.966c0.021-1.837,0.034-0.347,0.058-2.195c0.021-1.364,0.034-4.552,0.038-5.918v-0.079
		c0-0.152,0.086-0.291,0.086-0.439c0-0.083-0.082-1.073-0.082-1.18c0-0.211,0.197-0.379,0.197-0.547
		c0-0.083-0.119-0.072-0.152-0.148c-0.033-0.096-0.023-0.219-0.023-0.324c0-0.324,0.152-0.596,0.439-0.759
		c0.18-0.095,0.143-0.247,0.143-0.443c0-0.184,0.128-0.311,0.128-0.472c0-0.164,0.442-0.113,0.545-0.196
		c0.161-0.133,0.181-0.396,0.319-0.562c0.133-0.151,0.203-0.582,0.26-0.782c0.054-0.233,0.486-1.164,0.183-1.192
		c-0.31-0.171-1.854-0.214-1.854-0.758c0-0.208,0.031-0.447-0.025-0.65c-0.053-0.21-0.229-0.331-0.287-0.531
		c-0.083-0.296-0.018-0.342-0.018-0.645c0-0.131-0.105-1.104,0.158-1.078c0.35,0.038-0.049-0.426-0.049-0.531
		c0-0.317,0.234-0.433,0.295-0.708c0.063-0.303,0.24-0.431-0.008-0.655l-0.016-0.005v-0.39c-0.02-0.125-0.111-0.229-0.223-0.243
		l-0.335-0.049c0.206-0.219,0.381-0.473,0.405-0.706c0.031-0.217-0.16-0.442-0.172-0.668c-0.01-0.249-0.022-0.5-0.022-0.749
		c-0.005-0.207,0.036-0.396,0.091-0.592c0.021-0.046,0.033-0.079,0.014-0.114c0.024-0.104,0.039-0.226,0.031-0.35
		c0-0.142,0.342-0.7,0.16-0.772c-0.091-0.042-0.167-0.082-0.238-0.123c0.033-0.103,0.047-0.186-0.005-0.21
		c-0.387-0.145-0.416-0.305-0.716-0.538c-0.074-0.044-0.11-0.088-0.145-0.121c0.021-0.079,0.092-0.173,0.125-0.364
		c-0.009-0.023-0.055-0.051-0.091-0.084v-0.012c0-0.036-0.042-0.051-0.082-0.076v-0.008c-0.022-0.076,0-0.188-0.091-0.271
		c0,0-0.021-0.02-0.084-0.04c-0.043-0.037-0.164-0.075-0.316-0.056c-0.078,0.005-0.17,0.029-0.275,0.084
		c-0.09,0.076-0.066,0.196-0.082,0.267c-0.008,0.024-0.018,0.041-0.024,0.049c-0.005,0.009-0.018,0.015-0.026,0.015
		c-0.049,0.048-0.117,0.081-0.126,0.118c0.034,0.207,0.126,0.305,0.126,0.382c-0.026,0.034-0.064,0.059-0.107,0.104
		c-0.314,0.219-0.341,0.366-0.723,0.505c-0.043,0.024-0.039,0.103-0.017,0.193c-0.065,0.047-0.157,0.089-0.261,0.124
		c-0.184,0.065,0.161,0.642,0.152,0.782c0,0.086,0.009,0.175,0.018,0.251c-0.144,0.049-0.238,0.119-0.1,0.269
		c0.182,0.182,0.125,0.205,0.107,0.445c-0.008,0.116-0.005,0.295,0.117,0.391c-0.01,0.151-0.01,0.305-0.018,0.453
		c-0.01,0.235-0.201,0.445-0.182,0.68c0.018,0.113,0.082,0.247,0.165,0.383l-7.746-1.884c-0.021-0.01-0.035-0.023-0.04-0.052
		c-0.01-0.009-0.01-0.03-0.01-0.049v-1.884c0-0.572,0.163-1.033-0.015-1.575c-0.113-0.338-0.605-0.287-0.605-0.625v-0.186
		c0-0.24-0.22-0.356-0.22-0.593V72.52c0-0.344-0.248-2.199,0.202-2.309c0.157-0.309,0.637-1.042,0.189-1.195
		c-0.252-0.083-0.287-0.267-0.469-0.451c-0.248-0.1-0.333-0.34-0.333-0.597c0-0.818,0-1.646-0.015-2.463l-0.045-6.03
		c0-1.192-0.016-2.385-0.016-3.57v-0.237c0-0.22,0.211-0.198,0.211-0.42c0.107-0.195,0.091-0.27,0.292-0.442
		c0.347-0.297,0.24-0.237,0.145-0.626c-0.054-0.234,0.038-0.349,0.078-0.549c0.034-0.16-0.182-0.335-0.182-0.524
		c0-0.225-0.019-0.446,0.072-0.664c0.07-0.163-0.006-0.412,0.268-0.412c0.081-0.042,0.176,0.014,0.262-0.033
		c0.125-0.071,0.125-0.333,0.136-0.465c0.034-0.259,0.044-0.271,0.201-0.471c0.145-0.193-0.146-0.442-0.267-0.566
		c-0.17-0.167-0.338-0.382-0.596-0.402c-0.157-0.061-0.472,0.04-0.472-0.263c-0.097-0.264,0.013-0.78,0.021-1.068
		c0.004-0.403-0.221-0.615-0.312-0.979c-0.066-0.269-0.053-0.589-0.053-0.879c0-0.812-0.053-1.501,0.287-2.211
		c0.108-0.212,0.573-0.981,0.104-1.13c-0.133-0.085-0.347-0.107-0.495-0.151c-0.192-0.059-0.053-0.631-0.048-0.823
		c0.062-1.646-0.195-3.428-0.977-4.9c-0.778-1.418-2.133-2.735-3.479-3.629c-0.543-0.369-1.135-0.69-1.717-0.993
		c-0.148-0.076-0.296-0.158-0.448-0.231c-0.168-0.084-0.091-0.247-0.177-0.318c-0.173-0.161-0.378-0.277-0.444-0.505
		c-0.12-0.292-0.19-0.3-0.42-0.445c-0.211-0.074-0.413-0.289-0.417-0.524c0-0.085,0.24-0.276,0.289-0.362
		c0.133-0.291-0.171-0.249-0.292-0.387c-0.066-0.075-0.053-0.191-0.053-0.277c0-0.233-0.051-0.331-0.129-0.533
		c-0.041-0.151-0.013-0.342-0.013-0.491v-4.179c0-0.305,0.486-0.319,0.486-0.596c0-0.183-0.234-0.145-0.34-0.208
		c-0.208-0.051-0.146-0.195-0.227-0.352c-0.082-0.145-0.173-0.171-0.154-0.373c0.016-0.195,0-0.396-0.028-0.586
		c-0.161-0.94-0.759-1.718-1.589-2.167c-0.318-0.161-0.973-0.313-0.973-0.313c0.051-0.225-0.164-0.949-0.214-1.162
		c-0.073-0.278-0.152-0.54-0.226-0.809c-0.091-0.304-0.272-0.897-0.677-0.855c-0.415-0.042-0.596,0.551-0.687,0.855
		c-0.078,0.27-0.148,0.531-0.218,0.809c-0.06,0.212-0.259,0.937-0.217,1.162c0-0.002-0.656,0.151-0.959,0.313
		c-0.853,0.449-1.443,1.227-1.603,2.167c-0.028,0.191-0.042,0.391-0.028,0.586c0.015,0.202-0.076,0.229-0.149,0.373
		c-0.075,0.156-0.028,0.3-0.242,0.352c-0.095,0.063-0.33,0.025-0.33,0.208c0,0.276,0.486,0.291,0.486,0.596v4.179
		c0,0.149,0.023,0.34-0.025,0.491c-0.06,0.203-0.125,0.3-0.125,0.533c0,0.086,0.025,0.203-0.045,0.277
		c-0.12,0.138-0.429,0.096-0.292,0.387c0.045,0.086,0.292,0.277,0.28,0.362c0,0.235-0.204,0.451-0.409,0.524
		c-0.227,0.145-0.308,0.153-0.415,0.445c-0.086,0.229-0.284,0.344-0.454,0.505c-0.091,0.072-0.009,0.234-0.171,0.318
		c-0.157,0.073-0.302,0.155-0.45,0.231c-0.582,0.302-1.165,0.624-1.721,0.993c-1.337,0.894-2.706,2.211-3.475,3.629
		c-0.791,1.472-1.039,3.255-0.986,4.9c0.013,0.191,0.152,0.764-0.04,0.823c-0.144,0.044-0.371,0.066-0.491,0.151
		c-0.466,0.148-0.009,0.918,0.1,1.13c0.334,0.71,0.287,1.4,0.287,2.211c0,0.291,0.009,0.611-0.062,0.879
		c-0.082,0.364-0.305,0.576-0.3,0.979c0.004,0.288,0.119,0.805,0.018,1.068c0,0.303-0.309,0.202-0.482,0.263
		c-0.248,0.021-0.416,0.235-0.59,0.402c-0.114,0.124-0.407,0.373-0.264,0.566c0.149,0.2,0.164,0.212,0.195,0.471
		c0.016,0.132,0.016,0.394,0.151,0.465c0.079,0.047,0.17-0.009,0.245,0.033c0.287,0,0.212,0.249,0.287,0.412
		c0.082,0.218,0.062,0.439,0.062,0.664c0,0.188-0.209,0.364-0.185,0.524c0.048,0.201,0.139,0.315,0.082,0.549
		c-0.091,0.389-0.201,0.329,0.141,0.626c0.212,0.173,0.177,0.247,0.287,0.442c0,0.222,0.22,0.2,0.22,0.42v0.237
		c-0.009,1.185-0.009,2.377-0.013,3.57c-0.025,3.75-0.034,2.276-0.057,6.03v2.463c-0.01,0.257-0.095,0.497-0.346,0.597
		c-0.166,0.185-0.214,0.368-0.461,0.451c-0.453,0.154,0.029,0.887,0.18,1.195c0.45,0.109,0.211,1.964,0.211,2.309v0.322
		c0,0.237-0.224,0.353-0.224,0.593v0.577c0,0.329-0.497,0.258-0.601,0.592c-0.173,0.54-0.023,0.645-0.023,1.21v1.737l-0.012,0.211
		c0,0.043-0.038,0.084-0.088,0.084l-0.059,0.012l-7.592,1.834c0.083-0.132,0.154-0.265,0.163-0.387
		c0.026-0.234-0.163-0.444-0.174-0.68c-0.007-0.187-0.016-0.37-0.016-0.554c0.038-0.095,0.038-0.214,0.028-0.302
		c0-0.082-0.007-0.133-0.012-0.173c0.012-0.053,0.022-0.109,0.032-0.161c0.018-0.028,0.051-0.059,0.091-0.104
		c0.113-0.124,0.072-0.186-0.019-0.229c0.015-0.095,0.019-0.186,0.019-0.286c-0.004-0.14,0.334-0.717,0.157-0.782
		c-0.11-0.035-0.196-0.077-0.268-0.124c0.029-0.091,0.029-0.169-0.015-0.193c-0.385-0.139-0.413-0.286-0.713-0.505
		c-0.053-0.046-0.082-0.07-0.111-0.104c0-0.077,0.091-0.175,0.129-0.382c-0.009-0.037-0.081-0.07-0.129-0.118
		c-0.013,0-0.023-0.005-0.028-0.015c-0.009-0.009-0.021-0.025-0.025-0.049c-0.018-0.071,0.004-0.19-0.091-0.267
		c-0.098-0.056-0.189-0.08-0.272-0.084c-0.151-0.02-0.267,0.019-0.309,0.056c-0.062,0.021-0.085,0.04-0.085,0.04
		c-0.091,0.084-0.072,0.195-0.091,0.271v0.008c-0.042,0.025-0.091,0.04-0.091,0.076v0.012c-0.029,0.033-0.072,0.061-0.082,0.084
		c0.031,0.191,0.101,0.285,0.122,0.364c-0.04,0.032-0.073,0.076-0.146,0.121c-0.297,0.233-0.322,0.394-0.709,0.538
		c-0.057,0.024-0.038,0.107-0.013,0.21c-0.069,0.041-0.144,0.081-0.23,0.123c-0.186,0.072,0.152,0.631,0.152,0.772
		c0,0.101,0.009,0.196,0.016,0.287c-0.082,0.044-0.111,0.109-0.007,0.223c0.034,0.04,0.053,0.059,0.078,0.089
		c0.013,0.077,0.029,0.161,0.038,0.242c-0.006,0.038-0.009,0.062-0.009,0.117c-0.009,0.07-0.009,0.165,0.018,0.247
		c0,0.205-0.004,0.398-0.015,0.601c-0.015,0.226-0.204,0.451-0.176,0.668c0.029,0.243,0.226,0.515,0.429,0.733l-0.166,0.022
		c-0.116,0.014-0.211,0.118-0.22,0.243v0.291c-0.117,0.027-0.205,0.049-0.239,0.091c-0.253,0.232-0.078,0.347-0.015,0.649
		c0.053,0.28,0.283,0.391,0.283,0.711c0,0.102-0.396,0.577-0.035,0.527c0.253-0.027,0.152,0.955,0.152,1.083
		c0,0.311,0.057,0.349-0.026,0.654c-0.054,0.196-0.226,0.326-0.283,0.518c-0.054,0.208-0.01,0.451-0.01,0.658
		c0,0.543-1.551,0.577-1.865,0.764c-0.305,0.023,0.125,0.958,0.182,1.18c0.05,0.208,0.132,0.626,0.256,0.783
		c0.144,0.172,0.163,0.436,0.319,0.563c0.116,0.095,0.545,0.031,0.545,0.202c0,0.161,0.127,0.286,0.127,0.466
		c0,0.191-0.037,0.354,0.151,0.452c0.286,0.155,0.442,0.426,0.442,0.752c0,0.103,0.009,0.238-0.029,0.329
		c-0.034,0.08-0.148,0.062-0.148,0.146c0,0.176,0.186,0.335,0.192,0.544c0,0.11-0.078,1.101-0.078,1.176
		c0,0.151,0.078,0.291,0.078,0.442v0.086c0.022,1.365,0.029,4.557,0.04,5.926c0.026,1.842,0.04,0.349,0.06,2.195l0.004,0.988v0.004
		c0,0.046-0.029,0.079-0.082,0.968l-3.841,0.309c0.105-0.149,0.183-0.299,0.196-0.439c0.029-0.233-0.157-0.438-0.182-0.675
		c-0.009-0.245-0.015-0.5-0.019-0.749c-0.009-0.354,0.152-0.659,0.152-1.06c-0.009-0.14,0.325-0.717,0.148-0.778
		c-0.104-0.04-0.19-0.086-0.256-0.124c0.025-0.095,0.025-0.173-0.025-0.195c-0.381-0.145-0.41-0.291-0.721-0.511
		c-0.041-0.041-0.076-0.066-0.103-0.096c0-0.081,0.091-0.182,0.127-0.386c-0.015-0.038-0.082-0.073-0.127-0.114
		c-0.012,0-0.016-0.01-0.025-0.017c-0.009-0.017-0.019-0.031-0.029-0.052c-0.015-0.071,0.01-0.191-0.085-0.264
		c-0.1-0.064-0.186-0.082-0.268-0.094c-0.157-0.019-0.271,0.025-0.321,0.063c-0.054,0.025-0.075,0.04-0.075,0.04
		c-0.091,0.081-0.078,0.196-0.091,0.272v0.004c-0.053,0.031-0.091,0.048-0.091,0.08v0.009c-0.035,0.035-0.078,0.063-0.089,0.086
		c0.028,0.191,0.105,0.284,0.119,0.364c-0.029,0.035-0.073,0.074-0.139,0.118c-0.305,0.236-0.33,0.396-0.716,0.545
		c-0.047,0.019-0.037,0.105-0.009,0.21c-0.062,0.035-0.139,0.076-0.23,0.114c-0.183,0.073,0.148,0.633,0.148,0.778
		c-0.009,0.405,0.155,0.691,0.148,1.055c0,0.249-0.009,0.494-0.022,0.747c-0.015,0.236-0.205,0.459-0.173,0.673
		c0.01,0.193,0.146,0.407,0.305,0.594l-1.097,0.091l-0.025,1.399c-0.045,0.069-0.05,0.16-0.004,0.236l-0.045,3.136l-4.27,0.383
		v9.641l6.847-0.105c0,0-0.025-3.75-0.034-3.812v-0.24c0,0,0.066-0.117,0.113-0.117c0.054,0,3.879-0.309,4.043-0.349
		c0.009-0.015,0.009-0.058,0.037-0.117c0.047-0.051,0.154-0.232,0.215-0.305c0.057-0.065,0.696-0.151,0.753-0.151
		c0.064,0,0.239-0.076,0.325-0.095c0.075-0.021,0.396,0.014,0.453,0.014c0.054,0.005,0.135-0.09,0.186-0.147
		c0.044-0.034,0.144-0.12,0.144-0.12s0.226-0.066,0.334-0.066c0.105,0.008,0.214,0.047,0.404,0.082
		c0.183,0.026,0.426-0.065,0.426-0.065s0.1-0.105,0.157-0.122c0.054-0.011,0.211-0.031,0.272-0.016c0.066,0.005,0.177,0,0.177,0
		l0.085,0.005c0,0,0.042,0.063,0.097,0.016c0.062-0.038,0.176,0.038,0.176,0.038s0.066-0.059,0.113-0.191
		c0.007-0.045,0.057-0.125,0.135-0.296c0.025-0.04,0.062-0.148,0.079-0.191c0.025-0.037,0.035-0.106,0.06-0.148
		c0.082-0.18,0.148-0.305,0.148-0.305s0.047-0.128,0.076-0.18c0.023-0.067,0.062-0.103,0.114-0.187
		c0.062-0.081,0.082-0.081,0.082-0.081s0.048-0.108,0.108-0.186c0.066-0.078,0.196-0.354,0.239-0.422
		c0.053-0.063,0.234-0.396,0.287-0.452c0.057-0.053,0.209-0.237,0.209-0.237l0.057-0.202c0,0,0.325-0.906,0.445-1.064
		c0.123-0.168,0.409-0.749,0.483-0.893c0.069-0.153,0.292-0.718,0.335-0.83c0.047-0.121,0.264-0.729,0.294-0.805
		c0.025-0.091,0.25-0.673,0.274-0.759c0.018-0.067,0.173-0.474,0.204-0.558c0.04-0.072,0.152-0.437,0.196-0.491
		c0.053-0.053,0.205-0.34,0.205-0.387c0-0.043,0.145-0.442,0.22-0.578c0.066-0.125,0.182-0.425,0.234-0.503
		c0.062-0.074,0.218-0.328,0.243-0.404c0.029-0.075,0.141-0.259,0.157-0.293c0.023-0.044,0.214-0.317,0.264-0.408
		c0.057-0.101,0.262-0.301,0.303-0.367c0.054-0.062,0.145-0.249,0.188-0.319c0.048-0.072,0.205-0.372,0.237-0.478
		c0.021-0.104,0.125-0.376,0.155-0.475c0.026-0.107,0.231-0.536,0.248-0.61c0.009-0.08,0.152-0.484,0.204-0.57
		c0.048-0.086,0.057-0.249,0.11-0.35c0.042-0.091,0.211-0.377,0.268-0.491c0.053-0.113,0.091-0.272,0.148-0.368
		c0.053-0.1,0.177-0.3,0.205-0.38c0.042-0.087,0.173-0.276,0.214-0.367c0.054-0.103,0.1-0.144,0.182-0.282
		c0.078-0.136,0.158-0.233,0.209-0.305c0.045-0.073,0.141-0.235,0.198-0.309c0.047-0.063,0.108-0.136,0.108-0.136
		s0.053-0.333,0.1-0.44c0.044-0.115,0.091-0.213,0.091-0.213s0.031-0.618,0.085-0.74c0.053-0.113,0.125-0.368,0.152-0.453
		c0.05-0.087,0.059-0.225,0.059-0.225s0.196-0.404,0.243-0.49c0.044-0.087,0.144-0.292,0.157-0.354
		c0.01-0.064,0.163-0.501,0.201-0.557c0.038-0.058,0.196-0.2,0.196-0.2s0.133-0.344,0.163-0.412
		c-0.01,0.023,0.114-0.319,0.135-0.377c0.026-0.057,0.104-0.252,0.195-0.375c0.097-0.126,0.171-0.284,0.242-0.409
		c0.078-0.126,0.281-0.422,0.33-0.508c0.042-0.072,0.239-0.295,0.353-0.354c0.12-0.065,0.429-0.223,0.52-0.23
		c0.095,0,0.207-0.018,0.272-0.002c0.062,0.002,0.122-0.029,0.157-0.044c0.044-0.025,0.13-0.123,0.209-0.145
		c0.078-0.023,0.151-0.079,0.196-0.119c0.05-0.035,0.229-0.073,0.286-0.097c0.069-0.018,0.196-0.054,0.243-0.082
		c0.044-0.029,0.107-0.063,0.188-0.072c0.072,0,0.211-0.072,0.268-0.072c0.051,0,0.17-0.051,0.248-0.051
		c0.075-0.004,0.201-0.044,0.252-0.044c0.044,0,0.139-0.051,0.201-0.051c0.053,0,0.168-0.049,0.168-0.049s0.047-0.014,0.117-0.029
		c0.044-0.016,0.192-0.018,0.224-0.047c0.038-0.004,0.245-0.091,0.406-0.158c0.163-0.044,0.305-0.133,0.456-0.209
		c0.166-0.073,0.327-0.154,0.375-0.187c0.048-0.023,0.091-0.062,0.091-0.062s0.091-0.124,0.196-0.227
		c0.1-0.103,0.52-0.456,0.647-0.603c0.129-0.124,0.403-0.363,0.498-0.471c0.083-0.103,0.252-0.384,0.322-0.489
		c0.064-0.106,0.264-0.457,0.294-0.544c0.031-0.084,0.212-0.45,0.289-0.522c0.067-0.074,0.297-0.19,0.387-0.237
		c0.076-0.047,0.198-0.086,0.198-0.086s-0.016-0.138-0.016-0.196c0-0.051-0.044-0.167-0.044-0.167s-0.132-0.424-0.138-0.542
		c-0.01-0.114-0.019-0.468-0.019-0.468l0.004-0.243c0,0-0.082,0.072-0.157,0.087c-0.078,0.009-0.199-0.035-0.277-0.157
		c-0.053-0.111-0.078-0.342-0.101-0.399c-0.013-0.065-0.113-0.307-0.117-0.363c-0.016-0.059-0.06-0.198-0.073-0.257
		c-0.022-0.051-0.022-0.1-0.066-0.113c-0.054-0.019-0.086-0.092-0.135-0.092c-0.051,0.005-0.086,0.022-0.122-0.022
		c-0.016-0.037-0.056-0.037-0.091-0.037c-0.056,0-0.117-0.082-0.183-0.117c-0.072-0.032-0.272-0.188-0.315-0.231
		c-0.04-0.033-0.218-0.175-0.267-0.251c-0.048-0.069-0.107-0.496-0.091-0.578c0.022-0.102,0.022-0.422,0.022-0.422
		c0.016-0.042,0.025-0.225,0.025-0.225s0.015-0.349,0.019-0.433c0.004-0.085,0.016-0.207,0.057-0.263
		c0.054-0.054,0.076-0.163,0.076-0.163s0.019-0.247,0.062-0.319c0.048-0.079,0.103-0.188,0.173-0.282
		c0.057-0.097,0.167-0.233,0.218-0.267c0.053-0.042,0.144-0.149,0.198-0.176c0.062-0.02,0.062-0.139,0.107-0.218
		c0.056-0.079,0.111-0.242,0.146-0.301c0.018-0.07,0.07-0.172,0.07-0.172s0.047-0.158,0.047-0.217c0-0.058,0.205-0.493,0.239-0.574
		c0.044-0.066,0.422-0.539,0.655-0.675c0.242-0.146,0.333-0.161,0.333-0.161s0.201-0.103,0.243-0.107
		c0.034,0,0.193-0.127,0.378-0.111c0,0,0.226-0.135,0.363-0.151l0.176-0.028c0,0,0.177-0.2,0.211-0.251
		c0.038-0.061,0.309-0.245,0.415-0.273c0.107-0.029,0.233-0.072,0.233-0.072s0.23-0.144,0.321-0.165
		c0.094-0.012,0.144-0.07,0.319-0.086c0.173-0.015,0.482,0,0.582,0.002c0.111,0.014,0.444,0.13,0.516,0.149
		c0.066,0.019,0.292,0.072,0.34,0.076c0.051,0.017,0.335,0.143,0.391,0.153c0.051,0.033,0.182,0.119,0.243,0.164
		c0.051,0.051,0.265,0.165,0.309,0.202c0.038,0.045,0.148,0.104,0.182,0.145c0.038,0.056,0.152,0.172,0.23,0.226
		c0.066,0.041,0.23,0.226,0.286,0.289c0.057,0.065,0.23,0.212,0.324,0.263c0.078,0.047,0.338,0.258,0.438,0.338
		c0.091,0.082,0.155,0.224,0.177,0.286c0.015,0.054,0.057,0.233,0.057,0.363c0.004,0.108,0.004,0.515,0.004,0.515
		s0.035,0.014,0.114,0.067c0.082,0.062,0.239,0.242,0.272,0.326c0.025,0.089,0.062,0.238,0.105,0.338
		c0.029,0.091,0.059,0.277,0.101,0.328c0.032,0.04,0.057,0.007,0.085,0.116c0.025,0.109,0.029,0.201,0.053,0.234
		c0.021,0.042,0.076,0.124,0.063,0.19c-0.009,0.065,0,0.224,0.028,0.263c0.034,0.033,0.075,0.157,0.075,0.208
		c0,0.058,0.012,0.207,0.025,0.242c0.013,0.041,0.004,0.188-0.013,0.274C50.666,80.907,50.61,81,50.583,81.1
		c-0.025,0.089-0.078,0.198-0.086,0.284c-0.004,0.101-0.022,0.205-0.073,0.258c-0.041,0.043-0.041,0.171-0.041,0.251
		c0,0.083-0.034,0.118-0.091,0.165c-0.059,0.053-0.108,0.146-0.108,0.146s-0.107,0.051-0.164,0.098
		c-0.057,0.046-0.201,0.079-0.226,0.126c-0.026,0.072-0.248,0.209-0.294,0.298c-0.04,0.061-0.105,0.233-0.119,0.351
		c0,0.126,0.022,0.224-0.053,0.316c-0.082,0.108-0.164,0.184-0.311,0.132c-0.152-0.042-0.192-0.071-0.192-0.071
		s-0.062-0.035-0.104,0.004c-0.028,0.042-0.048,0.109-0.048,0.214c0,0.102-0.018,0.34-0.042,0.55
		c-0.037,0.209-0.144,0.614-0.258,0.787l-0.004,0.424l0.04,0.121l0.083,0.042c0,0,0.363,0.196,0.536,0.405
		c0.176,0.202,0.457,0.646,0.494,0.779c0.045,0.129,0.221,0.516,0.28,0.544c0.057,0.043,0.548,0.414,0.647,0.487
		c0.092,0.062,0.583,0.456,0.649,0.519c0.078,0.091,0.362,0.393,0.425,0.448c0.057,0.053,0.387,0.241,0.473,0.332
		c0,0,0.119,0.094,0.161,0.094c0.062,0,0.416,0.082,0.478,0.095c0.07,0.002,0.223,0.019,0.258,0.035l0.248,0.091
		c0,0,0.29,0.051,0.343,0.076c0.034,0.024,0.316,0.157,0.316,0.157l0.277,0.086c0,0,0.328,0.048,0.391,0.079
		c0.081,0.021,0.275,0.13,0.338,0.145c0.066,0,0.258,0.109,0.325,0.153c0.081,0.053,0.163,0.138,0.163,0.138s0.129-0.06,0.195-0.06
		s0.201,0.06,0.275,0.104c0.073,0.028,0.306,0.211,0.341,0.249c0.032,0.034,0.245,0.193,0.27,0.238
		c0.032,0.056,0.114,0.12,0.152,0.153c0.044,0.026,0.122,0.114,0.164,0.151c0.045,0.024,0.209,0.229,0.237,0.291
		c0.034,0.051,0.211,0.319,0.234,0.415c0.018,0.096,0.038,0.321,0.018,0.41c-0.018,0.086-0.041,0.177-0.018,0.254
		c0.034,0.071,0.129,0.191,0.233,0.258c0.105,0.064,0.325,0.237,0.36,0.3c0.037,0.064,0.088,0.237,0.107,0.314
		c0.016,0.071,0.177,0.417,0.29,0.589c0.111,0.165,0.217,0.284,0.289,0.442c0.066,0.147,0.214,0.442,0.271,0.563
		c0.048,0.132,0.111,0.322,0.157,0.401c0.056,0.089,0.157,0.229,0.192,0.285c0.029,0.062,0.072,0.257,0.129,0.325
		c0.057,0.062,0.11,0.281,0.127,0.344c0.016,0.068,0.145,0.237,0.198,0.268c0.062,0.018,0.258,0.216,0.362,0.247
		c0.091,0.035,0.214,0.18,0.277,0.268c0.053,0.089,0.366,0.575,0.448,0.682c0.082,0.113,0.351,0.462,0.378,0.495
		c0.009,0.041,0.182,0.307,0.182,0.307s0.148,0.271,0.214,0.329c0.067,0.049,0.17,0.163,0.243,0.258
		c0.066,0.109,0.215,0.416,0.325,0.615c0.091,0.2,0.223,0.516,0.257,0.583c0.024,0.066,0.109,0.282,0.109,0.282
		s0.107,0.091,0.209,0.229c0.111,0.147,0.203,0.32,0.397,0.546c0.192,0.203,0.319,0.382,0.353,0.435
		c0.034,0.059,0.148,0.23,0.207,0.368c0.079,0.131,0.231,0.469,0.275,0.591c0.032,0.131,0.115,0.325,0.186,0.436
		c0.07,0.108,0.137,0.377,0.222,0.461c0.093,0.103,0.29,0.412,0.396,0.549c0.108,0.124,0.252,0.373,0.309,0.468
		c0.063,0.091,0.14,0.284,0.23,0.391c0.091,0.096,0.156,0.234,0.208,0.305c0.044,0.089,0.105,0.2,0.105,0.273
		c0,0,0.058,0.142,0.368,0.47c0.3,0.308,0.616,0.899,0.652,0.99c0.043,0.084,0.248,0.424,0.273,0.582
		c0.031,0.146,0.247,0.744,0.283,0.803c0.029,0.066,0.189,0.433,0.23,0.479c0.043,0.049,0.149,0.44,0.178,0.494
		c0.037,0.048,0.247,0.511,0.276,0.582c0.044,0.066,0.144,0.336,0.2,0.406c0.063,0.071,0.123,0.265,0.178,0.352
		c0.066,0.091,0.109,0.235,0.148,0.288c0.042,0.052,0.1,0.256,0.133,0.329c0.037,0.078,0.102,0.386,0.123,0.429
		c0.015,0.031,0.062,0.276,0.062,0.276s0.321,0.357,0.407,0.404c0.103,0.047,0.219,0.273,0.219,0.273l0.068,0.191
		c0,0,0.166,0.158,0.214,0.2c0.047,0.037,0.138,0.277,0.165,0.387c0.008,0.091,0.082,0.405,0.082,0.506
		c0.01,0.091,0.027,0.281,0.047,0.34c0.023,0.064,0.092,0.347,0.119,0.412c0.033,0.073,0.055,0.308,0.055,0.308
		s0.09,0.223,0.152,0.272c0.053,0.042,0.109,0.191,0.109,0.191l0.07,0.075c0,0,0.115,0.012,0.182,0
		c0.059-0.013,0.209,0.01,0.267,0.025c0.063,0.02,0.158,0.115,0.158,0.115s0.249,0.091,0.439,0.063
		c0.175-0.029,0.281-0.065,0.392-0.065c0.107,0,0.342,0.065,0.342,0.065s0.096,0.064,0.145,0.122
		c0.048,0.042,0.124,0.138,0.177,0.133c0.065,0,0.806-0.1,0.882-0.08c0.092,0.024,0.219,0.037,0.287,0.037
		c0.07-0.004,0.238,0.078,0.296,0.147c0.058,0.059,0.173,0.254,0.21,0.302c0.042,0.061,0.076,0.219,0.129,0.281
		c0.033,0.067,0.118,0.3,0.118,0.338c0,0.051,0.063,0.161,0.067,0.215c0,0.044,0.057,0.258,0.057,0.258s0.092,0.061,0.1,0.104
		c0.006,0.004,2.182,0.056,6.714,0.104v-8.654L77.104,108.857z M39.089,67.556c0,0.125-0.086,0.225-0.192,0.236l-3.431,0.409
		c-0.032,0-0.057-0.005-0.082-0.019c-0.079-0.009-0.152-0.082-0.152-0.182V52.5c0-1.493,0.917-2.697,2.038-2.697
		c0.148,0,0.281,0.016,0.416,0.063c0.895,0.229,1.403,1.323,1.403,2.648V67.556z M44.159,24.357c0-0.452,0.387-0.976,0.855-0.976
		c0.066,0,0.129,0.012,0.195,0.033c0.41,0.088,0.708,0.549,0.708,0.953v4.826c0,0.028-0.025,0.063-0.05,0.063h-1.608
		c-0.009,0-0.018-0.007-0.022-0.011h-0.025c-0.032,0-0.053-0.029-0.053-0.067V24.357z M42.122,29.652
		c-0.034,0.01-0.062-0.012-0.062-0.053v-4.898c0.062-0.469,0.362-0.742,0.7-0.805c0.056-0.009,0.111-0.004,0.168,0.01
		c0.296,0.039,0.592,0.412,0.592,0.801v4.626c0,0.038-0.023,0.07-0.053,0.07l-1.302,0.259
		C42.151,29.677,42.133,29.662,42.122,29.652 M47.909,67.415c0,0.117-0.081,0.211-0.189,0.211h-5.285
		c-0.022,0-0.05-0.011-0.07-0.013c-0.086-0.021-0.161-0.107-0.161-0.207V51.407c0-1.532,1.194-3.057,2.833-3.057
		c0.207,0,0.42,0.026,0.617,0.08c1.332,0.305,2.256,1.641,2.256,2.995V67.415z M48,29.613c0,0.033-0.028,0.064-0.053,0.049
		l-1.277-0.259h-0.01l-0.038-0.017c-0.034,0-0.057-0.031-0.057-0.063v-4.623c0-0.44,0.353-0.869,0.725-0.805
		c0.015,0.004,0.019,0.01,0.032,0.01c0.004,0.006,0.016,0,0.016,0.006c0.334,0.047,0.609,0.362,0.662,0.794V29.613z M54.901,68.006
		c0,0.119-0.086,0.21-0.188,0.195l-3.435-0.409c-0.012-0.005-0.023-0.005-0.028-0.012l-0.021-0.005
		c-0.095-0.007-0.186-0.11-0.186-0.228V52.5c0-1.493,0.647-2.697,1.77-2.697c0.149,0,0.289,0.016,0.425,0.063
		c0.946,0.229,1.663,1.323,1.663,2.648V68.006z"/>
	<path fill="#FFFFFF" d="M27.866,134.294c0-0.132-0.127-0.204-0.374-0.214c-0.823-0.039-1.327-0.291-1.494-0.759l-0.095-0.491
		l0.025-0.372v-7.63c0-0.205,0-0.387,0.019-0.547l0.078-0.803c0.009-0.165,0.013-0.284,0.013-0.347c0-0.091-0.013-0.158-0.034-0.211
		c-0.04-0.193-0.398-0.211-0.558-0.166c-0.091,0.024-0.154,0.059-0.227,0.124l-0.413,0.382c-0.365,0.325-1.288,0.598-2.143,0.782
		c-0.463,0.107-0.768,0.19-0.916,0.268c-0.148,0.081-0.23,0.196-0.23,0.336c0,0.018,0.013,0.018,0.013,0.026
		c0.007,0.042,0.021,0.076,0.041,0.109c0.01,0.009,0.019,0.022,0.028,0.031c0.042,0.051,0.114,0.089,0.195,0.107
		c0.11,0.021,0.283,0.004,0.469-0.086l0.223-0.109c0.097-0.042,0.221-0.06,0.346-0.077c0.378,0.063,0.567,0.366,0.567,0.913v6.78
		l0.012,0.342c0,0.513-0.092,0.864-0.278,1.046c-0.186,0.187-0.586,0.323-1.203,0.419c-0.148,0.023-0.227,0.1-0.227,0.227
		c0,0.153,0.079,0.226,0.215,0.226c0.091,0,0.217-0.013,0.387-0.026c0.359-0.044,1.264-0.067,1.906-0.076
		c0.417,0.004,0.769,0.013,1.037,0.041c0.64,0.048,1.718,0.079,1.846,0.079c0.523,0,0.782-0.107,0.782-0.311L27.866,134.294z"/>
	<path fill="#FFFFFF" d="M49.084,130.247l-0.286-0.016c-0.237,0-0.353-0.044-0.357-0.138c0-0.058,0.029-0.138,0.095-0.229
		c0.057-0.067,0.12-0.158,0.205-0.287c0.507-0.789,0.955-1.545,1.342-2.046l1.02-1.227l0.006,3.409l0.013,0.217
		c0,0.277-0.11,0.429-0.333,0.429L49.084,130.247z M55.078,129.422L55.078,129.422c-0.078,0-0.135,0.053-0.168,0.162
		c-0.145,0.392-0.441,0.587-0.892,0.587c-0.264,0-0.417-0.045-0.454-0.145l-0.045-0.24v-5.418l0.009-0.791l0.013-0.755
		c0-0.153-0.051-0.233-0.146-0.233h-0.006h-0.009c-0.152,0-0.693,0.52-1.62,1.546c-0.929,1.042-1.979,2.294-3.152,3.764
		c-1.573,1.971-2.377,3.101-2.398,3.396c-0.01,0.153,0.047,0.254,0.125,0.3c0.079,0.04,0.252,0.061,0.519,0.061h3.517
		c0.289,0,0.58,0.146,0.643,0.193l0.069,0.203l0.028,0.281v1.968c0,0.349-0.037,0.651-0.097,0.927
		c-0.031,0.113-0.038,0.2-0.038,0.258c0,0.157,0.075,0.224,0.211,0.212h0.015h0.026c0.056-0.002,0.135-0.023,0.233-0.046
		c0.117-0.042,0.274-0.073,0.454-0.1l1.176-0.21c0.278,0,0.416-0.1,0.429-0.307v-2.811c0-0.251,0.022-0.397,0.066-0.46
		c0.048-0.056,0.161-0.084,0.343-0.084h0.3c0.382,0,0.637-0.074,0.76-0.221c0.113-0.143,0.195-0.363,0.227-0.896
		c0.025-0.391,0.059-0.647,0.082-0.755c0.009-0.067,0.018-0.123,0.018-0.181C55.314,129.492,55.235,129.422,55.078,129.422"/>
	<path fill="#FFFFFF" d="M67.201,128.242c-0.555-0.484-1.301-0.753-2.188-0.826c-0.127-0.018-0.266-0.027-0.423-0.032h-0.059h-0.019
		h-0.022c-0.296,0-1.024,0.021-1.485,0.063c-0.056-0.042-0.091-0.108-0.091-0.209c0-0.131,0.015-0.271,0.048-0.431
		c0.033-0.252,0.078-0.528,0.109-0.835c0.072-0.554,0.3-0.83,0.682-0.83h3.266c0.227,0,0.361-0.023,0.408-0.086
		c0.053-0.062,0.135-0.306,0.264-0.734l0.143-0.527l0.199-0.685c0.045-0.106,0.056-0.188,0.056-0.269
		c0-0.095-0.056-0.146-0.151-0.146h-0.004H67.93c-0.082,0-0.137,0.026-0.187,0.072l-0.353,0.346c-0.181,0.183-0.387,0.27-0.627,0.27
		h-4.17c-0.256,0-0.408,0.042-0.465,0.124c-0.043,0.085-0.116,0.407-0.187,0.964l-0.165,1.241c-0.069,0.446-0.127,0.85-0.16,1.201
		c-0.094,0.707-0.166,1.15-0.205,1.336c-0.053,0.22-0.082,0.368-0.082,0.446c0,0.264,0.102,0.404,0.296,0.449
		c0.017,0.007,0.038,0.017,0.091,0.017h0.009h0.006c0.091,0,0.253,0,0.472-0.047c0.021-0.007,0.035-0.007,0.056-0.01
		c0.44-0.066,0.757-0.095,0.961-0.095c0.517,0,0.96,0.114,1.354,0.329c0.035,0.023,0.07,0.034,0.107,0.058
		c0.123,0.077,0.237,0.161,0.35,0.258c0.469,0.438,0.715,0.984,0.715,1.646c0,0.797-0.303,1.464-0.909,2.01
		c-0.597,0.547-1.33,0.817-2.191,0.82c-0.533-0.003-1.214-0.157-2.054-0.473c-0.066-0.022-0.12-0.033-0.157-0.033h-0.004
		c-0.164,0-0.243,0.079-0.243,0.237c0,0.187,0.334,0.392,0.973,0.61c0.643,0.218,1.236,0.325,1.77,0.325h0.006h0.004
		c1.27,0,3.047-0.411,3.925-1.231c0.884-0.819,1.337-1.823,1.337-3.003C68.201,129.588,67.867,128.815,67.201,128.242"/>
	<path fill="#FFFFFF" d="M35.26,129.566c0.091-0.118,0.224-0.232,0.387-0.34c0.013-0.004,0.025-0.013,0.034-0.015h0.009
		c0.464,0.202,0.798,0.349,1.021,0.428l0.911,0.339c1.14,0.428,1.717,1.172,1.717,2.212c0,0.55-0.19,0.995-0.568,1.359
		c-0.366,0.3-0.891,0.494-1.487,0.494c-0.586,0-1.107-0.193-1.465-0.494c-0.076-0.069-0.157-0.127-0.224-0.208
		c-0.539-0.587-0.807-1.342-0.807-2.247C34.787,130.456,34.945,129.944,35.26,129.566 M35.859,123.976
		c0.16-0.13,0.337-0.226,0.523-0.313c0.185-0.072,0.397-0.113,0.633-0.113c0.246,0,0.482,0.053,0.672,0.135
		c0.226,0.109,0.442,0.251,0.642,0.442c0.441,0.437,0.662,0.975,0.662,1.604c0,0.507-0.139,0.929-0.42,1.264
		c-0.209,0.258-0.457,0.419-0.737,0.486c-0.519-0.079-1.069-0.313-1.633-0.708c-0.631-0.432-0.951-0.942-0.951-1.515
		C35.25,124.745,35.455,124.312,35.859,123.976 M39.302,128.174c-0.338-0.142-0.507-0.237-0.5-0.3
		c0.009-0.051,0.16-0.133,0.457-0.233c0.491-0.158,0.882-0.447,1.173-0.827c0.292-0.386,0.439-0.822,0.439-1.311
		c0-0.754-0.296-1.375-0.896-1.858c-0.592-0.486-1.705-0.724-2.634-0.724c-1.084,0-2.323,0.305-3.026,0.908
		c-0.693,0.607-1.047,1.385-1.047,2.326c0,0.987,0.423,1.785,1.26,2.402c0.132,0.098,0.185,0.164,0.174,0.2
		c0,0.035-0.062,0.082-0.166,0.14c-1.181,0.641-1.762,1.508-1.762,2.601c0,0.987,0.362,1.778,1.08,2.386
		c0.724,0.606,2.021,0.911,3.198,0.911c1.21,0,2.517-0.329,3.25-0.987c0.732-0.65,1.09-1.521,1.09-2.603
		C41.392,129.771,40.704,128.771,39.302,128.174"/>
	<path fill="#003015" d="M204.973,111.38c0.342-0.026,0.469-0.131,0.469-0.341c0-0.264-0.184-0.419-0.498-0.419
		c-0.021,0-0.066,0.004-0.105,0.007c-0.012-0.002-0.016-0.007-0.029-0.007c-0.027,0-0.066,0.004-0.082,0.004
		c-0.014,0-0.025-0.004-0.033-0.004c-0.187,0-0.549,0.054-0.994,0.104c-0.522,0.105-0.938,0.133-1.41,0.133h-0.572
		c-0.479,0-0.895-0.027-1.414-0.133c-0.442-0.051-0.811-0.104-0.994-0.104c-0.011,0-0.021,0.004-0.037,0.007
		c-0.038-0.002-0.074-0.007-0.104-0.007c-0.012,0-0.021,0.004-0.034,0.004c-0.028,0-0.058-0.004-0.082-0.004
		c-0.316,0-0.497,0.155-0.497,0.419c0,0.209,0.135,0.314,0.473,0.341c1.125,0.179,1.489,0.753,1.489,2.351
		c0,0.492,0.105,1.095,0.132,2.762c0.021,1.702,0,2.85,0,3.686l-0.085,4.694c-0.021,0.549-0.053,1.048-0.128,1.462
		c-0.159,0.759-0.523,1.148-1.202,1.282c-0.474,0.104-0.622,0.211-0.622,0.472c0,0.182,0.203,0.366,0.44,0.366
		c0.024,0,0.054-0.004,0.082-0.007c0.009,0,0.018,0.007,0.034,0.007c0.029,0,0.065-0.007,0.1-0.01c0.016,0.002,0.03,0.01,0.036,0.01
		c0.188,0,0.416-0.026,0.679-0.104c0.506-0.117,1.152-0.169,2.021-0.18c0.873,0.011,1.504,0.063,2.011,0.18
		c0.258,0.078,0.497,0.104,0.679,0.104c0.013,0,0.024-0.007,0.033-0.007c0.021,0.003,0.055,0.007,0.082,0.007
		c0.014,0,0.023-0.007,0.033-0.01c0.035,0.002,0.081,0.01,0.107,0.01c0.234,0,0.447-0.185,0.447-0.366
		c0-0.261-0.163-0.367-0.633-0.472c-0.679-0.133-1.039-0.522-1.195-1.282c-0.086-0.414-0.105-0.913-0.135-1.462l-0.075-4.694
		c0-0.836,0.021-1.983,0-3.686c-0.032-1.667,0.12-2.27,0.12-2.762C203.479,112.134,203.854,111.56,204.973,111.38 M376.352,111.38
		c0.339-0.026,0.468-0.131,0.468-0.341c0-0.264-0.179-0.419-0.491-0.419c-0.033,0-0.07,0.004-0.104,0.007
		c-0.021-0.002-0.025-0.007-0.044-0.007c-0.021,0-0.052,0.004-0.082,0.004c-0.009,0-0.018-0.004-0.03-0.004
		c-0.182,0-0.543,0.054-0.989,0.104c-0.526,0.105-0.944,0.133-1.412,0.133h-0.574c-0.466,0-0.891-0.027-1.412-0.133
		c-0.438-0.051-0.806-0.104-0.99-0.104c-0.012,0-0.024,0.004-0.04,0.007c-0.033-0.002-0.071-0.007-0.104-0.007
		c-0.009,0-0.016,0.004-0.029,0.004c-0.027,0-0.057-0.004-0.082-0.004c-0.313,0-0.495,0.155-0.495,0.419
		c0,0.209,0.129,0.314,0.472,0.341c1.122,0.179,1.48,0.753,1.48,2.351c0,0.492,0.104,1.095,0.133,2.762
		c0.029,1.702-0.005,2.85-0.005,3.686l-0.075,4.694c-0.03,0.549-0.055,1.048-0.135,1.462c-0.152,0.759-0.516,1.148-1.193,1.282
		c-0.473,0.104-0.63,0.211-0.63,0.472c0,0.182,0.211,0.366,0.448,0.366c0.021,0,0.055-0.004,0.078-0.007
		c0.016,0,0.021,0.007,0.029,0.007c0.031,0,0.074-0.007,0.104-0.01c0.015,0.002,0.027,0.01,0.044,0.01
		c0.179,0,0.421-0.026,0.677-0.104c0.501-0.117,1.145-0.169,2.013-0.18c0.868,0.011,1.515,0.063,2.019,0.18
		c0.262,0.078,0.492,0.104,0.674,0.104c0.009,0,0.021-0.007,0.032-0.007c0.024,0.003,0.056,0.007,0.081,0.007
		c0.014,0,0.03-0.007,0.039-0.01c0.033,0.002,0.07,0.01,0.104,0.01c0.234,0,0.444-0.185,0.444-0.366
		c0-0.261-0.157-0.367-0.626-0.472c-0.67-0.133-1.043-0.522-1.202-1.282c-0.075-0.414-0.104-0.913-0.128-1.462l-0.082-4.694
		c0-0.836,0.029-1.983,0-3.686c-0.027-1.667,0.131-2.27,0.131-2.762C374.865,112.134,375.231,111.56,376.352,111.38 M307.21,119.128
		c-0.378,0-0.788,0.012-1.173,0.012c-0.721-0.007-1.313-0.072-1.313-0.366v-6.379c0-0.859,0.399-0.924,1.098-0.931h0.08
		c2.453,0,4.795,1.028,4.795,4.095C310.697,118.679,308.282,119.128,307.21,119.128 M313.872,125.687l-3.935-5.962
		c0.82-0.282,1.338-0.568,1.781-0.984c0.759-0.7,1.406-2.168,1.406-3.263c0-1.02-0.281-1.911-0.782-2.655
		c-0.796-1.47-2.401-1.971-3.679-2.133c-0.457-0.078-0.938-0.122-1.465-0.122c-0.024,0-0.071,0.002-0.104,0.002
		c-0.012,0-0.021-0.002-0.029-0.002c-0.035,0-0.066,0.002-0.091,0.002c-0.011,0-0.015-0.002-0.028-0.002
		c-0.44,0-1.149,0.026-1.984,0.082l-0.025,0.016c-0.95,0.024-1.951,0.061-2.828,0.066c-1.133-0.01-1.046-0.1-1.48-0.1
		c-0.01,0-0.018,0.004-0.027,0.004c-0.033-0.004-0.072-0.004-0.113-0.004h-0.021h-0.09c-0.305,0-0.51,0.153-0.51,0.302
		c0,0.855,2.16-0.175,2.16,2.235v12.792c0,1.915-1.836,1.56-1.836,2.188c0,0.153,0.104,0.276,0.258,0.276h0.1h0.01h0.13h0.009
		c0.935,0,2.313-0.096,3.258-0.099c1.918,0.005,2.477,0.099,2.697,0.099c0.065,0,0.127,0.002,0.188,0.002
		c0.046,0.002,0.082,0,0.124,0c0.188,0.004,0.374,0.031,0.374-0.198c0-0.86-2.614-0.081-2.614-2.242v-5.306
		c0-0.243-0.152-0.702,0.651-0.702c0.13,0,0.234,0,0.346,0c1.77,0.007,1.593,0.114,2.374,1.34l2.793,4.393
		c0.956,1.433,1.928,2.713,3.77,2.713h0.109h0.004h0.135h0.009h0.1h0.005h0.109h0.008h0.131h0.005c0.229,0,1.636,0,1.636-0.298
		C316.908,127.52,315.68,128.454,313.872,125.687 M278.73,124.719c-0.025,0-0.049,0.011-0.074,0.029
		c-0.017-0.011-0.04-0.029-0.074-0.029c-0.177,0-0.481,0.753-1.627,1.45c-1.025,0.582-2.639,1.124-5.248,1.14
		c-1.941-0.029-1.76-0.64-1.76-2.086v-4.626c0-0.373-0.068-0.803,0.457-0.803h3.471c0.963,0,1.334,0.472,1.524,0.975
		c0.157,0.597,0.069,1.237,0.481,1.237c0.029,0,0.061-0.007,0.082-0.011c0.023,0.004,0.039,0.011,0.066,0.011
		c0.178,0,0.4-0.1,0.4-0.322c0-0.68-0.046-1.336-0.046-1.991c0-0.801,0.046-1.653,0.046-2.526c0-0.211-0.198-0.486-0.4-0.486
		c-0.038,0-0.062,0.007-0.086,0.016c-0.018-0.007-0.041-0.016-0.063-0.016c-0.322,0-0.23,0.584-0.499,1.125
		c-0.282,0.463-0.817,0.888-2.016,0.888h-2.46c-1.003,0-0.959,0-0.959-0.862v-4.668c0-1.472-0.033-1.583,1.561-1.593
		c0.168,0,0.347,0.005,0.553,0.005h0.011h0.095h0.022h0.126c0.219,0,0.519-0.012,0.848-0.012c1.178,0.004,2.686,0.093,3.163,0.722
		c0.187,0.264,0.229,0.661,0.276,1.011c-0.008,0.42-0.013,0.771,0.313,0.771c0.021,0,0.045-0.005,0.079-0.021
		c0.021,0.007,0.04,0.021,0.062,0.021c0.156,0,0.639-0.209,0.639-2.989c0-0.308-0.057-0.562-0.256-0.562
		c-0.04,0-0.096,0.002-0.135,0.002c-0.002,0-0.002-0.002-0.01-0.002c-0.027,0-0.074,0-0.104,0.002c-0.004,0-0.004-0.002-0.01-0.002
		c-0.752,0-2.935,0.093-3.526,0.101c-1.096-0.01-3.063-0.101-7.542-0.101h-0.01h-0.133h-0.01h-0.104
		c-0.721,0-0.873,0.103-0.873,0.303c0,0.308,0.552,0.352,0.753,0.408c1.355,0.2,1.355,1.406,1.355,2.54v11.455
		c0,1.184-0.053,1.888-0.703,2.186c-0.805,0.406-1.059,0.357-1.107,0.657c0,0.198,0.15,0.251,0.379,0.251h0.103h0.007h0.128h0.017
		c1.009,0,2.685-0.08,3.687-0.1c0.401-0.011,0.802-0.009,1.204-0.006c1.421,0.022,2.846,0.106,4.271,0.106
		c0.145,0,0.272,0.002,0.398,0c0.031,0.002,0.074,0.002,0.108,0c0.942,0.002,1.47-0.018,2.214-0.854
		c0.602-0.656,1.126-1.536,1.126-2.436C278.921,124.972,278.896,124.719,278.73,124.719 M449.596,110.516
		c-0.038,0-0.078,0.004-0.107,0.006c-0.013-0.002-0.025-0.006-0.042-0.006c-0.023,0-0.053,0.004-0.081,0.004
		c-0.01,0-0.02-0.004-0.033-0.004c-0.182,0-0.363,0.028-0.596,0.077c-0.468,0.074-1.068,0.125-1.862,0.129
		c-0.882-0.004-1.669-0.056-2.216-0.155c-0.313-0.051-0.626-0.08-0.781-0.08c-0.014,0-0.018,0.006-0.031,0.006
		c-0.039,0-0.077-0.006-0.109-0.006c-0.016,0-0.021,0.006-0.025,0.006c-0.029,0-0.065-0.006-0.09-0.006
		c-0.287,0-0.496,0.162-0.496,0.371c0,0.235,0.182,0.34,0.573,0.391c1.433,0.185,1.989,0.598,1.989,1.509
		c0,0.63-0.32,1.283-2.066,4.077c-0.539,0.879-0.805,1.344-0.953,1.595c-0.168,0.209-0.273,0.282-0.348,0.298
		c-0.251-0.103-0.708-1.076-2.231-3.849c-1.33-2.428-1.33-2.428-1.33-2.745c0-0.416,0.392-0.7,1.173-0.858
		c0.416-0.078,0.573-0.21,0.573-0.417c0-0.209-0.208-0.371-0.442-0.371c-0.035,0-0.078,0.006-0.131,0.006
		c0,0-0.008-0.006-0.013-0.006c-0.028,0-0.062,0.006-0.1,0.006c-0.005,0-0.005-0.006-0.015-0.006c-0.076,0-0.207,0-0.334,0.029
		c-0.902,0.15-1.924,0.229-2.973,0.232c-0.939-0.004-1.741-0.082-2.414-0.204c-0.154-0.028-0.338-0.057-0.439-0.057
		c-0.02,0-0.033,0.008-0.054,0.01c-0.026-0.004-0.07-0.01-0.093-0.01c-0.016,0-0.02,0.006-0.039,0.008
		c-0.025-0.002-0.057-0.008-0.073-0.008c-0.265,0-0.442,0.162-0.442,0.395c0,0.262,0.158,0.367,0.647,0.449
		c1.233,0.182,1.806,0.727,3.088,3c0.782,1.384,1.857,3.232,2.376,4.095c1.04,1.699,1.146,2.014,1.146,3.418
		c0,1.96-0.052,3.867-0.134,4.237c-0.177,0.801-0.777,1.249-1.928,1.353c-0.6,0.074-0.887,0.231-0.887,0.522
		c0,0.231,0.209,0.394,0.517,0.394c0.03,0,0.062-0.005,0.083-0.005c0.012,0,0.021,0.005,0.029,0.005c0.04,0,0.075-0.005,0.11-0.007
		c0.013,0.002,0.021,0.007,0.038,0.007c0.23,0,0.473-0.029,0.759-0.052c0.735-0.1,1.526-0.128,2.769-0.13
		c1.076,0,2.212,0.05,2.945,0.13c0.316,0.023,0.713,0.052,0.79,0.052c0.013,0,0.022-0.005,0.036-0.005
		c0.025,0.002,0.063,0.005,0.078,0.005s0.029-0.005,0.043-0.005c0.042,0.002,0.082,0.005,0.1,0.005c0.443,0,0.65-0.131,0.65-0.422
		c0-0.233-0.236-0.366-0.702-0.392c-1.313-0.053-2.067-0.364-2.325-0.988c-0.234-0.446-0.285-1.645-0.285-5.116
		c0-1.018,0.076-1.229,1.274-3.106c1.148-1.779,2.118-3.346,2.919-4.672c1.049-1.7,1.283-1.935,2.301-2.272
		c0.441-0.156,0.609-0.287,0.609-0.522C449.99,110.674,449.801,110.516,449.596,110.516 M344.145,118.032
		c-2.965-1.231-3.684-1.576-4.174-2.133c-0.375-0.378-0.604-0.95-0.622-1.521c-0.053-1.574,1.216-2.816,2.948-2.932
		c2.266-0.019,4.133,1.726,4.764,4.503c0.055,0.201,0.135,0.35,0.242,0.45c0.05,0.124,0.108,0.184,0.234,0.184
		c0.018-0.005,0.041-0.014,0.066-0.017c0.025,0.002,0.047,0.017,0.074,0.017c0.238-0.011,0.516-0.202,0.507-0.491
		c-0.009-0.205-0.044-0.442-0.104-0.729c-0.158-0.773-0.234-1.481-0.25-2.077c-0.015-0.37-0.003-0.836,0.025-1.416
		c0.021-0.13,0.018-0.288,0.018-0.337c-0.014-0.311-0.274-0.511-0.515-0.504c-0.034,0.002-0.056,0.006-0.076,0.011
		c-0.023,0-0.044-0.011-0.065-0.011c-0.092,0.002-0.116,0.029-0.145,0.076c-0.077,0.033-0.143,0.08-0.205,0.148
		c-0.086,0.113-0.164,0.175-0.234,0.211c-0.082-0.022-0.168-0.06-0.259-0.113c-1.087-0.568-2.484-0.914-3.657-0.875
		c-0.02,0-0.034,0.002-0.053,0.002c-0.034,0-0.063-0.002-0.092-0.002c-0.189,0.005-0.377,0.021-0.563,0.044
		c-2.824,0.291-4.922,2.396-4.835,4.977c0.065,1.875,1.096,3.226,3.295,4.222c4.084,1.906,4.084,1.906,4.488,2.148
		c1.074,0.7,1.511,1.389,1.543,2.458c0.067,1.746-1.503,3.305-3.359,3.422c-2.203-0.03-4.53-2.151-5.258-4.833
		c-0.152-0.54-0.467-0.792-0.729-0.785c-0.021,0-0.038,0.012-0.063,0.017c-0.025-0.002-0.053-0.017-0.078-0.017
		c-0.132,0.008-0.189,0.079-0.223,0.193c-0.082,0.095-0.139,0.223-0.135,0.377c0.009,0.156,0.035,0.389,0.102,0.593
		c0.537,2.124,0.537,2.208,0.586,2.806c0.068,1.223,0.068,1.223,0.469,1.466c1.149,0.726,3.019,1.182,4.738,1.124
		c0.038-0.002,0.074-0.006,0.117-0.012c0.044,0,0.091,0.006,0.135,0.003c3.367-0.113,5.815-2.464,5.721-5.492
		C348.441,120.784,347.159,119.261,344.145,118.032 M413.469,111.926c-0.129-1.229-0.129-1.277-0.655-1.277h-0.077h-0.066h-0.057
		h-0.057c-0.205,0-0.621,0.025-0.984,0.049c-1.699,0.104-3.234,0.156-4.428,0.16c-1.326-0.011-4.422-0.086-8.063-0.209
		c-0.285-0.028-0.519-0.028-0.643-0.028c-0.021,0-0.039,0.002-0.053,0.002c-0.025,0-0.072-0.002-0.096-0.002
		c-0.012,0-0.021,0.002-0.033,0.002c-0.029,0-0.063-0.002-0.078-0.002c-0.762,0-1.025,0.128-1.025,0.523
		c0,1.072,0,1.176-0.309,3.004c-0.078,0.312-0.105,0.624-0.105,0.857c0,0.167,0.071,0.31,0.166,0.418
		c0.047,0.128,0.129,0.207,0.286,0.207c0.024,0,0.048-0.009,0.073-0.011c0.023,0.002,0.049,0.011,0.07,0.011
		c0.291,0,0.553-0.26,0.63-0.884c0.077-0.838,0.362-1.488,0.782-1.854c0.683-0.582,1.919-0.92,3.57-0.938
		c1.226,0.016,1.577,0.289,1.625,1.173l0.104,11.774c0,1.904-0.366,2.373-2.06,2.633c-0.602,0.08-0.911,0.261-0.911,0.522
		c0,0.211,0.229,0.369,0.491,0.369c0.024,0,0.057-0.007,0.082-0.007c0.013,0,0.021,0.007,0.033,0.007
		c0.027,0,0.07-0.007,0.096-0.007c0.013,0,0.031,0.007,0.048,0.007c0.152,0,0.339-0.027,0.574-0.054
		c0.981-0.127,2.021-0.204,3.337-0.206c1.076,0.002,2.127,0.079,2.957,0.206c0.239,0.026,0.474,0.054,0.578,0.054
		c0.008,0,0.019-0.002,0.029-0.007c0.03,0.005,0.061,0.007,0.08,0.007c0.021,0,0.029-0.007,0.043-0.007
		c0.039,0.005,0.077,0.007,0.105,0.007c0.306,0,0.52-0.158,0.52-0.369c0-0.231-0.231-0.364-0.677-0.442
		c-2.065-0.286-2.538-0.678-2.538-2.194c0-0.181-0.021-1.018-0.047-1.904c-0.058-2.533-0.078-3.97-0.078-5.585
		c0-4.279,0.021-4.988,0.152-5.299c0.178-0.431,0.65-0.613,1.723-0.624c1.498,0.011,2.377,0.193,2.986,0.573
		c0.62,0.44,1.065,1.175,1.118,1.958c0.023,0.214,0.085,0.369,0.171,0.475c0.029,0.132,0.072,0.198,0.204,0.198
		c0.024,0,0.048-0.011,0.069-0.017c0.027,0.01,0.053,0.017,0.074,0.017c0.316,0,0.625-0.307,0.625-0.778
		c0-0.393-0.027-0.472-0.182-1.357C413.547,112.658,413.5,112.266,413.469,111.926 M177.469,110.593
		c-0.018,0-0.05,0.005-0.088,0.012c-0.016-0.002-0.032-0.012-0.057-0.012c-0.02,0-0.045,0.005-0.07,0.009
		c-0.014-0.002-0.025-0.009-0.045-0.009c-0.049,0-0.156,0.028-0.514,0.082c-0.606,0.074-1.163,0.124-1.714,0.128
		c-0.803-0.009-1.741-0.058-2.71-0.153c-0.258-0.028-0.495-0.056-0.678-0.056c-0.018,0-0.034,0.007-0.041,0.007
		c-0.034-0.002-0.08-0.007-0.1-0.007c-0.014,0-0.025,0.005-0.041,0.005c-0.022,0-0.055-0.005-0.072-0.005
		c-0.342,0-0.554,0.156-0.554,0.394c0,0.184,0.212,0.313,0.575,0.367c1.441,0.206,1.938,0.443,2.352,1.228
		c0.445,0.756,0.63,2.297,0.63,5.245c0,1.669-0.075,5.744-0.135,5.951c-0.013,0.066-0.03,0.107-0.05,0.135
		c-0.19-0.1-0.432-0.367-0.713-0.815c-3.24-4.095-4.566-5.717-8.775-10.595c-0.514-0.629-0.984-1.171-1.144-1.383
		c-0.333-0.422-0.603-0.604-0.835-0.604c-0.025,0-0.061,0.004-0.096,0.009c-0.016-0.002-0.033-0.009-0.049-0.009
		c-0.017,0-0.051,0.004-0.075,0.006c-0.013-0.002-0.029-0.006-0.036-0.006c-0.08,0-0.234,0.028-0.409,0.051
		c-0.274,0.075-0.69,0.1-1.251,0.105c-0.668-0.005-1.215-0.026-1.535-0.079c-0.227-0.026-0.466-0.048-0.589-0.048
		c-0.018,0-0.029,0.004-0.05,0.004c-0.033,0-0.068-0.004-0.1-0.004c-0.009,0-0.02,0.004-0.035,0.004
		c-0.015-0.002-0.056-0.004-0.079-0.004c-0.316,0-0.573,0.181-0.573,0.442c0,0.313,0.257,0.447,0.919,0.497
		c1.931,0.103,2.578,1.072,2.578,3.811v0.129l-0.013-0.129c0,2.822-0.152,8.303-0.283,9.578c-0.035,0.401-0.086,0.741-0.145,1.036
		l-0.195,0.611c-0.229,0.527-0.566,0.829-1.094,1.017c-0.652,0.21-0.758,0.291-0.758,0.522c0,0.239,0.23,0.396,0.547,0.396h0.008
		c0.027,0,0.053-0.002,0.082-0.004c0.01,0.002,0.014,0.004,0.025,0.004h0.009c0.029,0,0.065-0.002,0.106-0.004
		c0.01,0,0.018,0.004,0.022,0.004h0.012c0.161,0,0.445-0.026,0.703-0.08l0.005-0.002c0.502-0.093,1.063-0.133,1.646-0.154
		c0.581,0.021,1.154,0.061,1.654,0.156c0.262,0.054,0.549,0.08,0.714,0.08c0.009,0,0.015-0.004,0.019-0.004
		c0.031,0.002,0.063,0.004,0.092,0.004c0.004,0,0.01-0.004,0.025-0.004c0.04,0.002,0.078,0.004,0.11,0.004
		c0.316,0,0.55-0.156,0.55-0.396c0-0.231-0.1-0.313-0.755-0.522c-0.938-0.335-1.28-0.988-1.437-2.664
		c-0.1-0.987-0.221-4.5-0.262-7.345l0.021-1.655v-0.993c0.004-0.038,0.014-0.062,0.035-0.088c0.113,0.075,0.254,0.206,0.441,0.422
		c0.121,0.158,0.467,0.526,0.984,1.02c0.311,0.238,2.302,2.506,4.123,4.752c0.996,1.204,2.355,2.875,4.125,4.987
		c0.709,0.836,1.355,1.645,1.545,1.904c0.391,0.552,0.699,0.836,0.939,0.836c0.02,0,0.033-0.011,0.045-0.019
		c0.021,0.008,0.045,0.019,0.066,0.019c0.023,0,0.041-0.019,0.064-0.025c0.024,0.014,0.054,0.025,0.076,0.025
		c0.283,0,0.422-0.338,0.422-1.071c0-0.675,0.029-3.806,0.078-9.369c0.025-2.926,0.07-4.832,0.129-5.25
		c0.104-0.911,0.469-1.279,1.568-1.563c0.365-0.078,0.494-0.209,0.494-0.419C177.859,110.749,177.73,110.593,177.469,110.593
		 M244.727,110.749l-0.105,0.007c-0.013,0-0.02-0.007-0.033-0.007l-0.086,0.007c-0.01,0-0.018-0.007-0.028-0.007l-0.63,0.027
		c-0.572,0.078-1.245,0.101-1.989,0.104c-0.92-0.006-1.705-0.051-2.349-0.131c-0.391-0.051-0.704-0.074-0.938-0.074
		c-0.015,0-0.024,0.002-0.04,0.002c-0.03-0.002-0.07-0.002-0.104-0.002h-0.025h-0.089c-0.286,0-0.468,0.156-0.468,0.391
		c0,0.235,0.239,0.394,0.65,0.471c1.596,0.286,1.596,0.286,1.986,0.654c0.178,0.156,0.287,0.442,0.287,0.727
		c0,0.632-0.236,1.334-1.255,3.813c-1.612,3.814-1.612,3.814-2.815,6.501c-0.305,0.673-0.466,1.075-0.586,1.324
		c-0.161,0.238-0.291,0.335-0.396,0.364c-0.31-0.109-0.604-1.058-1.874-4.455c-1.953-5.304-1.953-5.304-2.631-6.971
		c-0.135-0.338-0.209-0.682-0.209-0.884c0-0.631,0.596-0.971,2.084-1.175c0.367-0.053,0.526-0.185,0.526-0.422
		c0-0.263-0.211-0.419-0.526-0.419c-0.021,0-0.065,0-0.107,0.005c-0.014,0-0.021-0.005-0.034-0.005c-0.024,0-0.058,0-0.087,0.005
		c-0.01,0-0.014-0.005-0.027-0.005c-0.129,0-0.416,0.028-0.678,0.082c-0.555,0.1-1.504,0.154-2.576,0.156
		c-1.402-0.002-2.387-0.059-3.041-0.182c-0.26-0.056-0.467-0.082-0.572-0.082c-0.018,0.002-0.033,0.009-0.047,0.009
		c-0.029,0-0.078-0.009-0.102-0.009c-0.013,0.002-0.021,0.007-0.025,0.009c-0.029-0.002-0.069-0.009-0.082-0.009
		c-0.339,0.026-0.521,0.182-0.521,0.445c0,0.212,0.158,0.369,0.521,0.447c1.932,0.468,1.955,0.494,2.397,1.537
		c0.683,1.649,1.179,2.876,1.489,3.708c1.334,3.368,2.404,6.086,3.236,8.144c0.835,2.063,0.835,2.063,1.33,3.474
		c0.1,0.238,0.205,0.398,0.309,0.51c0.055,0.132,0.1,0.193,0.203,0.193c0.036,0,0.07-0.006,0.105-0.008
		c0.013,0,0.025,0.008,0.036,0.008c0.233,0,0.39-0.024,1.066-1.36c1.96-3.83,4.909-10.072,6.087-13.02
		c0.906-2.117,1.354-2.691,2.346-2.901c0.837-0.183,0.989-0.259,0.989-0.572C245.3,110.909,245.065,110.749,244.727,110.749
		 M137.998,110.567l-0.104,0.007c-0.008,0-0.016-0.007-0.032-0.007l-0.079,0.007c-0.016-0.002-0.025-0.007-0.037-0.007l-0.54,0.026
		c-0.878,0.1-1.798,0.174-2.274,0.181c-0.486-0.002-0.82-0.029-1.311-0.1c-0.346-0.082-0.71-0.107-0.869-0.107
		c-0.008,0-0.012,0.007-0.028,0.007c-0.038-0.004-0.075-0.007-0.108-0.007c-0.012,0-0.016,0.005-0.025,0.005
		c-0.031-0.002-0.065-0.005-0.09-0.005c-0.316,0-0.497,0.158-0.497,0.42c0,0.262,0.241,0.421,0.732,0.472
		c2.169,0.206,2.479,0.836,2.479,4.878c0,5.43-0.187,7.207-0.886,8.566c-0.819,1.564-2.861,2.573-5.221,2.603
		c-1.902-0.029-3.293-0.569-4.154-1.639c-0.969-1.176-1.285-2.796-1.285-6.657l0.074-5.637c0.029-0.603,0.111-1.07,0.271-1.41
		c0.154-0.395,0.623-0.679,1.27-0.782c0.48-0.08,0.662-0.21,0.662-0.471c0-0.235-0.182-0.365-0.498-0.365
		c-0.029,0-0.07,0.002-0.092,0.004c-0.023,0-0.037-0.004-0.051-0.004c-0.022,0-0.052,0.002-0.076,0.002
		c-0.016,0-0.023-0.002-0.04-0.002c-0.157,0-0.416,0.022-0.647,0.048c-0.898,0.125-1.732,0.176-2.461,0.181
		c-0.771-0.005-1.564-0.056-2.512-0.181c-0.232-0.026-0.367-0.026-0.512-0.026c-0.004,0-0.012,0.002-0.021,0.002
		c-0.046,0-0.079-0.002-0.124-0.002c-0.006,0-0.011,0.002-0.016,0.002c-0.03,0-0.066-0.002-0.102-0.002
		c-0.396,0-0.627,0.158-0.627,0.445c0,0.237,0.211,0.396,0.682,0.472c1.094,0.129,1.566,0.338,1.854,0.732
		c0.231,0.34,0.29,0.701,0.29,2.531l-0.03,5.588c0,3.316,0.391,5.006,1.408,6.184c1.23,1.409,3.479,2.219,6.157,2.219
		c0.021,0,0.041-0.004,0.053-0.004c0.024,0,0.044,0.004,0.064,0.004c0.029,0,0.041-0.004,0.065-0.004
		c0.029,0,0.055,0.004,0.075,0.004c2.813,0,5.019-0.888,6.292-2.555c1.045-1.385,1.337-2.691,1.441-6.584l0.119-4.198
		c0.029-1.388,0.061-2.246,0.061-2.406c0.105-0.938,0.396-1.357,1.175-1.562c0.495-0.133,0.646-0.236,0.646-0.447
		C138.52,110.725,138.344,110.567,137.998,110.567 M411.545,67.366c0,1.503,4.918,1.107,8.645,1.107
		c3.404,0,11.017-1.427,11.017-11.257c0-9.679-7.371-12.925-15.144-12.925c-2.846,0-4.518-0.164-4.518,2.934V67.366z
		 M440.405,89.165c5.707,8.722,9.595,5.786,9.595,7.696c0,0.949-4.443,0.949-5.153,0.949c-5.788,0-8.88-4.048-11.895-8.563
		l-8.798-13.878c-2.857-4.439-1.67-4.202-10.545-4.202c-2.537,0-2.064,1.427-2.064,2.221v16.726c0,6.82,8.244,4.366,8.244,7.063
		c0,0.786-0.712,0.633-1.346,0.633c-0.717,0-2.537-0.318-9.117-0.318c-3.016,0-6.025,0.318-9.037,0.318
		c-0.478,0-0.797-0.4-0.797-0.875c0-1.983,5.789-0.869,5.789-6.896V49.679c0-7.609-6.813-4.36-6.813-7.052
		c0-0.479,0.628-0.955,1.577-0.955c1.427,0,1.036,0.316,5.083,0.316c4.596,0,9.109-0.316,13.239-0.316
		c1.265,0,18.788-1.584,18.788,13.716c0,6.184-4.436,11.496-9.99,13.717L440.405,89.165z M338.793,67.125
		c0,14.669,9.597,28.86,25.294,28.86c11.578,0,20.854-9.275,20.854-23.945c0-14.431-9.753-28.466-25.214-28.466
		C346.404,43.575,338.793,54.596,338.793,67.125 M333.003,69.421c0-16.491,12.849-28.459,29.099-28.459
		c16.178,0,28.627,11.65,28.627,28.065c0,17.842-12.292,29.333-29.977,29.333C343.551,98.361,333.003,86.15,333.003,69.421
		 M299.309,49.521c0-6.894,5.781-4.916,5.781-6.736c0-0.952-0.476-1.113-1.507-1.113c-1.183,0-3.088,0.316-7.611,0.316
		c-3.888,0-6.343-0.316-8.005-0.316c-1.03,0-1.587,0.161-1.587,1.031c0,1.588,6.655,1.031,6.655,5.152v40.201
		c0,3.726-0.148,5.945-2.22,6.894c-2.532,1.271-3.327,1.115-3.483,2.065c0,0.636,0.478,0.793,1.189,0.793
		c3.172,0,6.502-0.235,9.67-0.318c6.025-0.159,14.113,0.318,20.139,0.318c3.487,0,5.234,0.153,7.776-2.698
		c1.896-2.061,3.961-4.836,3.961-7.689c0-0.157-0.085-0.955-0.639-0.955c-1.025,0-5.777,8.171-24.1,8.171
		c-6.661,0-6.021-1.905-6.021-6.582V49.521z M244.879,71.865c0.631,0.949,1.828,2.534,1.828,4.041v15.161
		c0,5.635-6.112,3.572-6.112,5.794c0,0.871,0.478,0.949,1.192,0.949c0.712,0,3.57-0.318,7.133-0.318c2.939,0,7.53,0.318,8.721,0.318
		c1.112,0,1.828-0.079,1.828-0.793c0-2.459-6.506-0.237-6.506-7.136V74.478c0-1.187,0.639-1.582,1.906-3.57l13.604-21.396
		c1.269-1.979,2.303-4.205,4.441-5.472c0.558-0.315,1.903-0.634,1.903-1.504c0-0.398-0.396-0.958-0.878-0.958
		c-2.291,0-4.594,0.319-6.896,0.319c-1.902,0-3.887-0.319-5.785-0.319c-0.869,0-1.668,0.161-1.668,1.192
		c0,1.906,5.951,0.24,5.951,4.127c0,2.142-1.112,3.484-1.664,4.36l-10.674,17.355c-0.639,1.024-1.111,1.583-1.512,1.583
		c-0.473,0-0.95-0.471-1.58-1.428l-12.19-19.324c-0.476-0.713-1.427-1.984-1.427-3.252c0-2.3,3.727-2.38,3.727-3.722
		c0-0.722-0.951-0.798-1.508-0.798c-0.792,0-2.931,0.316-5.549,0.316c-5.393,0-6.897-0.316-9.035-0.316
		c-0.563,0-1.037,0.635-1.037,1.189c0,1.348,3.889,0.396,5.951,3.806L244.879,71.865z M184.62,72.898
		c-0.552,1.112,0,1.429,1.03,1.429l17.4,0.268c1.742,0,1.667-0.554,1.269-1.585l-8.583-21.346c-0.398-0.951-0.793-0.951-1.264,0
		L184.62,72.898z M207.729,81.098c-0.795-1.83-1.27-3.014-3.488-3.014l-19.15-0.27c-1.504,0-2.932,0-3.727,1.665l-4.179,9.132
		c-0.231,0.554-0.552,1.747-0.552,2.775c0,5.551,5.629,3.171,5.629,5.229c0,1.437-1.109,1.195-2.142,1.195
		c-2.22,0-4.436-0.318-6.659-0.318c-2.137,0-4.281,0.318-6.342,0.318c-0.481,0-0.715-0.4-0.715-0.873
		c0-1.667,3.726-0.322,5.788-4.835l18.955-40.438c4.669-9.991,4.91-11.255,5.937-11.255c0.873,0,1.436,2.295,1.668,2.928
		l16.494,40.837c1.189,2.933,2.137,6.263,3.965,9.038c2.376,3.649,6.976,1.901,6.976,3.881c0,0.717-0.556,0.717-1.107,0.717
		c-3.257,0-6.503-0.318-9.759-0.318c-2.142,0-4.279,0.318-6.414,0.318c-0.484,0-1.746,0-1.746-0.793
		c0-1.904,4.754-1.108,4.754-4.122c0-1.746-1.662-5.394-2.449-7.537L207.729,81.098z M130.532,63.319
		c0,2.535-0.952,2.933,6.188,2.933c13.005,0,13.638-4.835,13.638-8.563c0-8.561-7.221-13.397-15.223-13.397
		c-4.998,0-4.603,1.347-4.603,5.944V63.319z M130.532,88.294c0,5.708-0.396,7.374,10.858,7.374c10.553,0,13.405-6.978,13.405-11.735
		c0-5.073-0.319-15.223-18.554-15.223c-6.105,0-5.71,1.111-5.71,1.822V88.294z M124.27,49.602c0-6.027-7.055-5.234-7.055-6.817
		c0-1.192,1.184-1.113,2.143-1.113c1.582,0,3.171,0.316,6.338,0.316c3.174,0,6.348-0.316,12.686-0.316
		c13.963,0,17.446,7.614,17.446,13.479c0,8.089-7.454,10.702-7.454,11.262c0,1.187,12.452,1.427,12.452,14.584
		c0,5.236-3.813,16.813-19.267,16.813c-2.857,0-7.613-0.318-10.314-0.318c-3.639,0-7.367,0.318-11.014,0.318
		c-0.396,0-1.988-0.158-1.988-0.873c0-0.789,0.951-1.028,2.379-1.504c0.873-0.242,3.648-0.638,3.648-6.822V49.602z"/>
</g>
</svg>
